<svg xmlns="http://www.w3.org/2000/svg" xmlns:xlink="http://www.w3.org/1999/xlink" viewBox="0 0 62.93066 88.66874"><defs><linearGradient id="a" y1="45.03551" x2="62.93066" y2="45.03551" gradientUnits="userSpaceOnUse"><stop offset="0" stop-color="#ff574a" stop-opacity="0.5"/><stop offset="0.01132" stop-color="#ff574a" stop-opacity="0.4905"/><stop offset="0.2385" stop-color="#ff574a" stop-opacity="0.31592"/><stop offset="0.45714" stop-color="#ff574a" stop-opacity="0.17861"/><stop offset="0.66239" stop-color="#ff574a" stop-opacity="0.08023"/><stop offset="0.84896" stop-color="#ff574a" stop-opacity="0.02068"/><stop offset="1" stop-color="#ff574a" stop-opacity="0"/></linearGradient><linearGradient id="b" x1="5.04625" y1="70.03158" x2="57.88441" y2="70.03158" xlink:href="#a"/><linearGradient id="e" x1="-9104.47694" y1="45.03551" x2="-9041.54628" y2="45.03551" gradientTransform="matrix(-1, 0, 0, 1, -9041.54627, 0)" gradientUnits="userSpaceOnUse"><stop offset="0" stop-color="#ff574a" stop-opacity="0.5"/><stop offset="0.00613" stop-color="#ff574a" stop-opacity="0.4905"/><stop offset="0.12919" stop-color="#ff574a" stop-opacity="0.31592"/><stop offset="0.24762" stop-color="#ff574a" stop-opacity="0.17861"/><stop offset="0.35879" stop-color="#ff574a" stop-opacity="0.08023"/><stop offset="0.45986" stop-color="#ff574a" stop-opacity="0.02068"/><stop offset="0.54167" stop-color="#ff574a" stop-opacity="0"/></linearGradient></defs><title>approach4-beaker</title><path d="M41.49427,25.50272V1.40227H21.43665V25.50272A32.3661,32.3661,0,0,0,0,56.23948C0,74.14967,14.08755,88.66874,31.46546,88.66874c17.37765,0,31.4652-14.51907,31.4652-32.42926A32.36587,32.36587,0,0,0,41.49427,25.50272Z" style="fill:url(#a)"/><path d="M57.88441,56.82205a26.41908,26.41908,0,0,1-52.83816,0Z" style="fill:url(#b)"/><path d="M57.88441,56.82205a26.41908,26.41908,0,0,1-52.83816,0Z" style="fill:url(#b)"/><path d="M57.88441,56.82205a26.41908,26.41908,0,0,1-52.83816,0Z" style="fill:url(#b)"/><line x1="17.48426" y1="1.40227" x2="45.4464" y2="1.40227" style="fill:none;stroke:#ff7d5f;stroke-miterlimit:10;stroke-width:2.80454301929474px"/><path d="M21.4364,25.50272V1.40227H41.494V25.50272A32.36608,32.36608,0,0,1,62.93066,56.23948c0,17.91019-14.08755,32.42926-31.46546,32.42926C14.08755,88.66874,0,74.14967,0,56.23948A32.36587,32.36587,0,0,1,21.4364,25.50272Z" style="fill:url(#e)"/></svg>