<svg xmlns="http://www.w3.org/2000/svg" xmlns:xlink="http://www.w3.org/1999/xlink" viewBox="0 0 107.68912 211.18287"><defs><linearGradient id="a" x1="53.84456" y1="211.18287" x2="53.84456" gradientUnits="userSpaceOnUse"><stop offset="0" stop-color="#ffb17d" stop-opacity="0.5"/><stop offset="0.00339" stop-color="#ffb17d" stop-opacity="0.4905"/><stop offset="0.0713" stop-color="#ffb17d" stop-opacity="0.31592"/><stop offset="0.13666" stop-color="#ffb17d" stop-opacity="0.17861"/><stop offset="0.19801" stop-color="#ffb17d" stop-opacity="0.08023"/><stop offset="0.25379" stop-color="#ffb17d" stop-opacity="0.02068"/><stop offset="0.29894" stop-color="#ffb17d" stop-opacity="0"/></linearGradient><linearGradient id="b" x1="53.84456" y1="211.18287" x2="53.84456" gradientUnits="userSpaceOnUse"><stop offset="0.40661" stop-color="#ffb17d" stop-opacity="0"/><stop offset="1" stop-color="#fbb040" stop-opacity="0.5"/></linearGradient><linearGradient id="g" x1="53.84456" y1="211.18287" x2="53.84456" gradientUnits="userSpaceOnUse"><stop offset="0" stop-color="#fbb040" stop-opacity="0.5"/><stop offset="0.00126" stop-color="#fbb040" stop-opacity="0.49822"/><stop offset="0.13742" stop-color="#fcb056" stop-opacity="0.32092"/><stop offset="0.26849" stop-color="#feb167" stop-opacity="0.18144"/><stop offset="0.39153" stop-color="#feb173" stop-opacity="0.0815"/><stop offset="0.50338" stop-color="#ffb17a" stop-opacity="0.02101"/><stop offset="0.59393" stop-color="#ffb17d" stop-opacity="0"/></linearGradient><radialGradient id="h" cx="53.84456" cy="105.59144" r="83.81166" gradientUnits="userSpaceOnUse"><stop offset="0" stop-color="#fff9c4" stop-opacity="0.5"/><stop offset="0.1271" stop-color="#fff9c4" stop-opacity="0.43593"/><stop offset="0.37669" stop-color="#fff9c4" stop-opacity="0.26862"/><stop offset="0.72294" stop-color="#fff9c4" stop-opacity="0"/></radialGradient><linearGradient id="i" y1="105.59144" x2="107.68912" y2="105.59144" gradientUnits="userSpaceOnUse"><stop offset="0.06074" stop-color="#f4c83b"/><stop offset="0.29894" stop-color="#ffb17d" stop-opacity="0"/></linearGradient><linearGradient id="k" x1="-221.30634" y1="105.59144" x2="-113.61722" y2="105.59144" gradientTransform="matrix(-1, 0, 0, 1, -113.61722, 0)" xlink:href="#i"/></defs><title>approach3-bulb</title><g style="isolation:isolate"><line x1="49.31661" y1="204.15059" x2="35.25813" y2="69.80334" style="fill:none;stroke:#404549;stroke-miterlimit:10;stroke-width:2.18792009353638px"/><line x1="58.02384" y1="204.15059" x2="72.08232" y2="69.80334" style="fill:none;stroke:#404549;stroke-miterlimit:10;stroke-width:2.18792009353638px"/><path d="M31.751,85.7655c2.76059,0,2.76059,6.79392,5.52118,6.79392s2.76058-6.79392,5.52116-6.79392,2.76063,6.79392,5.52126,6.79392c2.76135,0,2.76135-6.79392,5.52269-6.79392,2.75985,0,2.75985,6.79392,5.5197,6.79392,2.76224,0,2.76224-6.79392,5.52449-6.79392,2.76414,0,2.76414,6.79392,5.52829,6.79392s2.76414-6.79392,5.52829-6.79392" style="fill:none;stroke:#fff;stroke-miterlimit:10;stroke-width:3.3969614898049px"/><path d="M60.55914,5.36072,56.14908.95066a3.26881,3.26881,0,0,0-4.60926,0l-4.40993,4.41A4.92848,4.92848,0,0,1,44.491,6.71048,54.04365,54.04365,0,0,0,0,59.72807v73.4624A53.92481,53.92481,0,0,0,25.57541,178.95a9.62191,9.62191,0,0,1,4.45573,8.19838v24.03446H77.658V187.14841A9.6219,9.6219,0,0,1,82.11371,178.95a53.92481,53.92481,0,0,0,25.57541-45.75956V59.72807A54.0438,54.0438,0,0,0,63.198,6.71048,4.92859,4.92859,0,0,1,60.55914,5.36072Z" style="fill:url(#a)"/><path d="M60.55914,5.36072,56.14908.95066a3.26881,3.26881,0,0,0-4.60926,0l-4.40993,4.41A4.92848,4.92848,0,0,1,44.491,6.71048,54.04365,54.04365,0,0,0,0,59.72807v73.4624A53.92481,53.92481,0,0,0,25.57541,178.95a9.62191,9.62191,0,0,1,4.45573,8.19838v24.03446H77.658V187.14841A9.6219,9.6219,0,0,1,82.11371,178.95a53.92481,53.92481,0,0,0,25.57541-45.75956V59.72807A54.0438,54.0438,0,0,0,63.198,6.71048,4.92859,4.92859,0,0,1,60.55914,5.36072Z" style="fill:url(#b)"/><path d="M60.55914,5.36072,56.14908.95066a3.26881,3.26881,0,0,0-4.60926,0l-4.40993,4.41A4.92848,4.92848,0,0,1,44.491,6.71048,54.04365,54.04365,0,0,0,0,59.72807v73.4624A53.92481,53.92481,0,0,0,25.57541,178.95a9.62191,9.62191,0,0,1,4.45573,8.19838v24.03446H77.658V187.14841A9.6219,9.6219,0,0,1,82.11371,178.95a53.92481,53.92481,0,0,0,25.57541-45.75956V59.72807A54.0438,54.0438,0,0,0,63.198,6.71048,4.92859,4.92859,0,0,1,60.55914,5.36072Z" style="fill:url(#b)"/><path d="M60.55914,5.36072,56.14908.95066a3.26881,3.26881,0,0,0-4.60926,0l-4.40993,4.41A4.92848,4.92848,0,0,1,44.491,6.71048,54.04365,54.04365,0,0,0,0,59.72807v73.4624A53.92481,53.92481,0,0,0,25.57541,178.95a9.62191,9.62191,0,0,1,4.45573,8.19838v24.03446H77.658V187.14841A9.6219,9.6219,0,0,1,82.11371,178.95a53.92481,53.92481,0,0,0,25.57541-45.75956V59.72807A54.0438,54.0438,0,0,0,63.198,6.71048,4.92859,4.92859,0,0,1,60.55914,5.36072Z" style="fill:url(#a)"/><path d="M60.55914,5.36072,56.14908.95066a3.26881,3.26881,0,0,0-4.60926,0l-4.40993,4.41A4.92848,4.92848,0,0,1,44.491,6.71048,54.04365,54.04365,0,0,0,0,59.72807v73.4624A53.92481,53.92481,0,0,0,25.57541,178.95a9.62191,9.62191,0,0,1,4.45573,8.19838v24.03446H77.658V187.14841A9.6219,9.6219,0,0,1,82.11371,178.95a53.92481,53.92481,0,0,0,25.57541-45.75956V59.72807A54.0438,54.0438,0,0,0,63.198,6.71048,4.92859,4.92859,0,0,1,60.55914,5.36072Z" style="fill:url(#a)"/><path d="M60.55914,5.36072,56.14908.95066a3.26881,3.26881,0,0,0-4.60926,0l-4.40993,4.41A4.92848,4.92848,0,0,1,44.491,6.71048,54.04365,54.04365,0,0,0,0,59.72807v73.4624A53.92481,53.92481,0,0,0,25.57541,178.95a9.62191,9.62191,0,0,1,4.45573,8.19838v24.03446H77.658V187.14841A9.6219,9.6219,0,0,1,82.11371,178.95a53.92481,53.92481,0,0,0,25.57541-45.75956V59.72807A54.0438,54.0438,0,0,0,63.198,6.71048,4.92859,4.92859,0,0,1,60.55914,5.36072Z" style="fill:url(#a)"/><path d="M60.55914,5.36072,56.14908.95066a3.26881,3.26881,0,0,0-4.60926,0l-4.40993,4.41A4.92848,4.92848,0,0,1,44.491,6.71048,54.04365,54.04365,0,0,0,0,59.72807v73.4624A53.92481,53.92481,0,0,0,25.57541,178.95a9.62191,9.62191,0,0,1,4.45573,8.19838v24.03446H77.658V187.14841A9.6219,9.6219,0,0,1,82.11371,178.95a53.92481,53.92481,0,0,0,25.57541-45.75956V59.72807A54.0438,54.0438,0,0,0,63.198,6.71048,4.92859,4.92859,0,0,1,60.55914,5.36072Z" style="fill:url(#g)"/><path d="M60.55914,5.36072,56.14908.95066a3.26881,3.26881,0,0,0-4.60926,0l-4.40993,4.41A4.92848,4.92848,0,0,1,44.491,6.71048,54.04365,54.04365,0,0,0,0,59.72807v73.4624A53.92481,53.92481,0,0,0,25.57541,178.95a9.62191,9.62191,0,0,1,4.45573,8.19838v24.03446H77.658V187.14841A9.6219,9.6219,0,0,1,82.11371,178.95a53.92481,53.92481,0,0,0,25.57541-45.75956V59.72807A54.0438,54.0438,0,0,0,63.198,6.71048,4.92859,4.92859,0,0,1,60.55914,5.36072Z" style="fill:url(#h)"/><path d="M60.55914,5.36072,56.14908.95066a3.26881,3.26881,0,0,0-4.60926,0l-4.40993,4.41A4.92848,4.92848,0,0,1,44.491,6.71048,54.04365,54.04365,0,0,0,0,59.72807v73.4624A53.92481,53.92481,0,0,0,25.57541,178.95a9.62191,9.62191,0,0,1,4.45573,8.19838v24.03446H77.658V187.14841A9.6219,9.6219,0,0,1,82.11371,178.95a53.92481,53.92481,0,0,0,25.57541-45.75956V59.72807A54.0438,54.0438,0,0,0,63.198,6.71048,4.92859,4.92859,0,0,1,60.55914,5.36072Z" style="opacity:0.25;mix-blend-mode:multiply;fill:url(#i)"/><path d="M60.55914,5.36072,56.14908.95066a3.26881,3.26881,0,0,0-4.60926,0l-4.40993,4.41A4.92848,4.92848,0,0,1,44.491,6.71048,54.04365,54.04365,0,0,0,0,59.72807v73.4624A53.92481,53.92481,0,0,0,25.57541,178.95a9.62191,9.62191,0,0,1,4.45573,8.19838v24.03446H77.658V187.14841A9.6219,9.6219,0,0,1,82.11371,178.95a53.92481,53.92481,0,0,0,25.57541-45.75956V59.72807A54.0438,54.0438,0,0,0,63.198,6.71048,4.92859,4.92859,0,0,1,60.55914,5.36072Z" style="opacity:0.25;mix-blend-mode:multiply;fill:url(#i)"/><path d="M47.13,5.36072,51.54.95066a3.26881,3.26881,0,0,1,4.60926,0l4.40993,4.41a4.92855,4.92855,0,0,0,2.63892,1.3498,54.04365,54.04365,0,0,1,44.491,53.01759v73.4624A53.92481,53.92481,0,0,1,82.11371,178.95a9.6219,9.6219,0,0,0-4.45572,8.19838v24.03446H30.03114V187.14841A9.62191,9.62191,0,0,0,25.57541,178.95,53.92481,53.92481,0,0,1,0,133.19047V59.72807A54.0438,54.0438,0,0,1,44.49111,6.71048,4.92859,4.92859,0,0,0,47.13,5.36072Z" style="opacity:0.25;mix-blend-mode:multiply;fill:url(#k)"/></g></svg>