<svg xmlns="http://www.w3.org/2000/svg" viewBox="0 0 760 200.64047"><title>approach2-headlines</title><line x1="67.98952" y1="71.50289" x2="60.33393" y2="71.50238" style="fill:none;stroke:#ffdb7d;stroke-miterlimit:10;stroke-width:2px"/><line x1="358.13678" y1="63.42932" x2="337.68521" y2="63.4288" style="fill:none;stroke:#ffdb7d;stroke-miterlimit:10;stroke-width:2px"/><line x1="170.57903" y1="107.45252" x2="150.12746" y2="107.452" style="fill:none;stroke:#ffdb7d;stroke-miterlimit:10;stroke-width:2px"/><line x1="27.71061" y1="15.89624" x2="20.05502" y2="15.89573" style="fill:none;stroke:#ffdb7d;stroke-miterlimit:10;stroke-width:2px"/><line x1="132.09946" y1="155.09917" x2="115.95576" y2="155.09866" style="fill:none;stroke:#ffdb7d;stroke-miterlimit:10;stroke-width:2px"/><line x1="90.22864" y1="113.30103" x2="74.08495" y2="113.30052" style="fill:none;stroke:#ffdb7d;stroke-miterlimit:10;stroke-width:2px;opacity:0.4099999964237213;isolation:isolate"/><line x1="288.36778" y1="110.40221" x2="272.22409" y2="110.4017" style="fill:none;stroke:#ffdb7d;stroke-miterlimit:10;stroke-width:2px;opacity:0.4099999964237213;isolation:isolate"/><line x1="16.14373" y1="146.91125" x2="0.00003" y2="146.91075" style="fill:none;stroke:#ffdb7d;stroke-miterlimit:10;stroke-width:2px;opacity:0.4099999964237213;isolation:isolate"/><line x1="194.79031" y1="151.25208" x2="202.4459" y2="151.25259" style="fill:none;stroke:#ffdb7d;stroke-miterlimit:10;stroke-width:2px"/><line x1="206.35719" y1="20.23706" x2="222.50089" y2="20.23757" style="fill:none;stroke:#ffdb7d;stroke-miterlimit:10;stroke-width:2px;opacity:0.4099999964237213;isolation:isolate"/><line x1="68.19765" y1="176.14635" x2="60.1258" y2="176.14581" style="fill:none;stroke:#ffdb7d;stroke-miterlimit:10;stroke-width:2px;opacity:0.4099999964237213;isolation:isolate"/><line x1="110.4806" y1="29.70475" x2="94.3369" y2="29.70423" style="fill:none;stroke:#ffdb7d;stroke-miterlimit:10;stroke-width:2px"/><line x1="313.86612" y1="134.34769" x2="321.52173" y2="134.34821" style="fill:none;stroke:#ffdb7d;stroke-miterlimit:10;stroke-width:2px"/><line x1="191.61044" y1="72.93689" x2="199.26605" y2="72.93741" style="fill:none;stroke:#ffdb7d;stroke-miterlimit:10;stroke-width:2px"/><line x1="249.7561" y1="50.75137" x2="265.89981" y2="50.75189" style="fill:none;stroke:#ffdb7d;stroke-miterlimit:10;stroke-width:2px"/><line x1="305.65121" y1="23.88013" x2="313.72308" y2="23.88065" style="fill:none;stroke:#ffdb7d;stroke-miterlimit:10;stroke-width:2px;opacity:0.4099999964237213;isolation:isolate"/><line x1="229.18632" y1="184.07612" x2="237.25819" y2="184.07663" style="fill:none;stroke:#ffdb7d;stroke-miterlimit:10;stroke-width:2px;opacity:0.4099999964237213;isolation:isolate"/><line x1="368.99103" x2="377.06287" y2="0.00052" style="fill:none;stroke:#ffdb7d;stroke-miterlimit:10;stroke-width:2px;opacity:0.20000000298023224;isolation:isolate"/><line x1="271.37503" y1="176.14583" x2="287.51874" y2="176.14635" style="fill:none;stroke:#ffdb7d;stroke-miterlimit:10;stroke-width:2px"/><line x1="19.63876" y1="198.63995" x2="35.78246" y2="198.64047" style="fill:none;stroke:#ffdb7d;stroke-miterlimit:10;stroke-width:2px"/><line x1="316.01035" y1="189.65748" x2="332.15405" y2="189.658" style="fill:none;stroke:#ffdb7d;stroke-miterlimit:10;stroke-width:2px"/><line x1="368.96735" y1="191.53851" x2="377.06287" y2="191.53905" style="fill:none;stroke:#ffdb7d;stroke-miterlimit:10;stroke-width:2px;opacity:0.20000000298023224;isolation:isolate"/><line x1="447.98949" y1="71.50289" x2="440.3339" y2="71.50238" style="fill:none;stroke:#ffdb7d;stroke-miterlimit:10;stroke-width:2px"/><line x1="738.13675" y1="63.42932" x2="717.68518" y2="63.4288" style="fill:none;stroke:#ffdb7d;stroke-miterlimit:10;stroke-width:2px"/><line x1="550.579" y1="107.45252" x2="530.12743" y2="107.452" style="fill:none;stroke:#ffdb7d;stroke-miterlimit:10;stroke-width:2px"/><line x1="407.71058" y1="15.89624" x2="400.05499" y2="15.89573" style="fill:none;stroke:#ffdb7d;stroke-miterlimit:10;stroke-width:2px"/><line x1="512.09943" y1="155.09917" x2="495.95573" y2="155.09866" style="fill:none;stroke:#ffdb7d;stroke-miterlimit:10;stroke-width:2px"/><line x1="470.22861" y1="113.30103" x2="454.08492" y2="113.30052" style="fill:none;stroke:#ffdb7d;stroke-miterlimit:10;stroke-width:2px;opacity:0.4099999964237213;isolation:isolate"/><line x1="668.36775" y1="110.40221" x2="652.22406" y2="110.4017" style="fill:none;stroke:#ffdb7d;stroke-miterlimit:10;stroke-width:2px;opacity:0.4099999964237213;isolation:isolate"/><line x1="396.1437" y1="146.91125" x2="380" y2="146.91075" style="fill:none;stroke:#ffdb7d;stroke-miterlimit:10;stroke-width:2px;opacity:0.4099999964237213;isolation:isolate"/><line x1="574.79028" y1="151.25208" x2="582.44587" y2="151.25259" style="fill:none;stroke:#ffdb7d;stroke-miterlimit:10;stroke-width:2px"/><line x1="586.35716" y1="20.23706" x2="602.50086" y2="20.23757" style="fill:none;stroke:#ffdb7d;stroke-miterlimit:10;stroke-width:2px;opacity:0.4099999964237213;isolation:isolate"/><line x1="448.19762" y1="176.14635" x2="440.12577" y2="176.14581" style="fill:none;stroke:#ffdb7d;stroke-miterlimit:10;stroke-width:2px;opacity:0.4099999964237213;isolation:isolate"/><line x1="490.48057" y1="29.70475" x2="474.33687" y2="29.70423" style="fill:none;stroke:#ffdb7d;stroke-miterlimit:10;stroke-width:2px"/><line x1="693.86609" y1="134.34769" x2="701.5217" y2="134.34821" style="fill:none;stroke:#ffdb7d;stroke-miterlimit:10;stroke-width:2px"/><line x1="571.61041" y1="72.93689" x2="579.26602" y2="72.93741" style="fill:none;stroke:#ffdb7d;stroke-miterlimit:10;stroke-width:2px"/><line x1="629.75607" y1="50.75137" x2="645.89978" y2="50.75189" style="fill:none;stroke:#ffdb7d;stroke-miterlimit:10;stroke-width:2px"/><line x1="685.65118" y1="23.88013" x2="693.72305" y2="23.88065" style="fill:none;stroke:#ffdb7d;stroke-miterlimit:10;stroke-width:2px;opacity:0.4099999964237213;isolation:isolate"/><line x1="609.18629" y1="184.07612" x2="617.25816" y2="184.07663" style="fill:none;stroke:#ffdb7d;stroke-miterlimit:10;stroke-width:2px;opacity:0.4099999964237213;isolation:isolate"/><line x1="748.991" x2="757.06284" y2="0.00052" style="fill:none;stroke:#ffdb7d;stroke-miterlimit:10;stroke-width:2px;opacity:0.20000000298023224;isolation:isolate"/><line x1="651.375" y1="176.14583" x2="667.51871" y2="176.14635" style="fill:none;stroke:#ffdb7d;stroke-miterlimit:10;stroke-width:2px"/><line x1="399.63873" y1="198.63995" x2="415.78243" y2="198.64047" style="fill:none;stroke:#ffdb7d;stroke-miterlimit:10;stroke-width:2px"/><line x1="696.01032" y1="189.65748" x2="712.15402" y2="189.658" style="fill:none;stroke:#ffdb7d;stroke-miterlimit:10;stroke-width:2px"/><line x1="748.96732" y1="191.53851" x2="757.06284" y2="191.53905" style="fill:none;stroke:#ffdb7d;stroke-miterlimit:10;stroke-width:2px;opacity:0.20000000298023224;isolation:isolate"/></svg>