<svg xmlns="http://www.w3.org/2000/svg" viewBox="0 0 272 26"><title>approach2-wave</title><path d="M262.55505,12.689c-1.974,5.58343-4.0155,11.35644-7.55883,11.35644s-5.58484-5.773-7.5589-11.35644C245.23254,6.45068,242.95148,0,237.99243,0s-7.24011,6.45117-9.44592,12.69043c-1.973,5.58252-4.01459,11.355-7.55591,11.355-3.54236,0-5.58289-5.773-7.556-11.35547C211.22888,6.45117,208.94781,0,203.98975,0c-4.95716,0-7.23719,6.45117-9.442,12.69-1.972,5.58246-4.01257,11.35547-7.553,11.35547-3.54236,0-5.58288-5.773-7.55591-11.356C177.233,6.45068,174.95294,0,169.99487,0c-4.95764,0-7.23767,6.45117-9.4425,12.68939-1.973,5.583-4.01355,11.356-7.55493,11.356-3.5409,0-5.58142-5.77246-7.55445-11.35547C143.23816,6.45117,140.95807,0,136,0c-4.959,0-7.24011,6.45068-9.445,12.689-1.974,5.58343-4.0155,11.35644-7.55883,11.35644s-5.58484-5.773-7.5589-11.35644C109.23254,6.45068,106.95148,0,101.99243,0s-7.24011,6.45117-9.44592,12.69043c-1.973,5.58252-4.01459,11.355-7.55591,11.355-3.54236,0-5.58289-5.773-7.556-11.35547C75.22888,6.45117,72.94781,0,67.98975,0c-4.95716,0-7.23719,6.45117-9.442,12.69-1.97205,5.58246-4.01257,11.35547-7.553,11.35547-3.54236,0-5.58288-5.773-7.55591-11.356C41.233,6.45068,38.95294,0,33.99487,0c-4.95764,0-7.23767,6.45117-9.4425,12.68939-1.973,5.583-4.01355,11.356-7.55493,11.356-3.5409,0-5.58142-5.77246-7.55445-11.35547C7.23816,6.45117,4.95807,0,0,0V2C3.54138,2,5.58191,7.773,7.55493,13.356c2.20477,6.23828,4.48486,12.68945,9.44245,12.68945,4.95813,0,7.23822-6.45117,9.443-12.68994C28.41345,7.77246,30.454,2,33.99487,2c3.54132,0,5.58191,5.77246,7.55493,11.355,2.20582,6.23926,4.48591,12.69043,9.445,12.69043,4.95709,0,7.23718-6.45117,9.442-12.68994C62.40881,7.773,64.44934,2,67.98975,2c3.54229,0,5.58288,5.773,7.5559,11.35553,2.20581,6.23877,4.48682,12.68988,9.445,12.68988s7.23914-6.45062,9.445-12.68939C96.40863,7.773,98.45007,2,101.99243,2s5.58386,5.77246,7.55689,11.355c2.20678,6.23926,4.48779,12.69043,9.4469,12.69043s7.24017-6.45117,9.4469-12.69043C130.4162,7.77246,132.45764,2,136,2c3.54138,0,5.58191,5.773,7.55493,11.356,2.20477,6.23828,4.48486,12.68945,9.44245,12.68945,4.95813,0,7.23822-6.45117,9.443-12.68994C164.41345,7.77246,166.454,2,169.99487,2c3.54132,0,5.58191,5.77246,7.55493,11.355,2.20582,6.23926,4.48591,12.69043,9.445,12.69043,4.95709,0,7.23718-6.45117,9.442-12.68994C198.40881,7.773,200.44934,2,203.98975,2c3.54229,0,5.58288,5.773,7.5559,11.35553,2.20581,6.23877,4.48682,12.68988,9.445,12.68988s7.23914-6.45062,9.445-12.68939C232.40863,7.773,234.45007,2,237.99243,2s5.58386,5.77246,7.55689,11.355c2.20678,6.23926,4.48779,12.69043,9.4469,12.69043s7.24017-6.45117,9.4469-12.69043C266.4162,7.77246,268.45764,2,272,2V0C267.041,0,264.75989,6.45068,262.55505,12.689Z" style="fill:#f2b2b0"/></svg>