<svg xmlns="http://www.w3.org/2000/svg" viewBox="0 0 230.01199 100.52529"><title>approach2-boxes1</title><rect y="6.57256" width="93.95273" height="93.95273" style="fill:#2f3336"/><polygon points="105.364 93.953 93.953 100.525 93.953 6.573 105.364 0 105.364 93.953" style="fill:#ffdb7d"/><polygon points="11.411 0 105.364 0 93.953 6.573 0 6.573 11.411 0" style="fill:#ffc0d8"/><polygon points="42.328 87.962 23.952 87.962 23.952 69.586 42.328 87.962" style="fill:#404549"/><rect x="23.95169" y="22.01712" width="18.37606" height="38.27166" style="fill:#404549"/><circle cx="57.84466" cy="53.72158" r="6.56719" style="fill:#404549"/><rect x="124.64782" y="6.57256" width="93.95273" height="93.95273" style="fill:#2f3336"/><polygon points="230.012 93.953 218.601 100.525 218.601 6.573 230.012 0 230.012 93.953" style="fill:#ffdb7d"/><polygon points="136.059 0 230.012 0 218.601 6.573 124.648 6.573 136.059 0" style="fill:#ffc0d8"/><polygon points="176.273 22.017 194.649 22.017 194.649 40.393 176.273 22.017" style="fill:#404549"/><rect x="148.59951" y="22.01712" width="18.37606" height="38.27166" style="fill:#404549"/><circle cx="182.49248" cy="53.72158" r="6.56719" style="fill:#404549"/><line x1="124.64782" y1="39.50841" x2="99.65845" y2="39.50841" style="fill:none;stroke:#a231ef;stroke-miterlimit:10;stroke-width:2px"/></svg>