<svg xmlns="http://www.w3.org/2000/svg" viewBox="0 0 17.70473 12.79883"><title>bulb-shape5</title><path d="M4.68408,12.79883a4.385,4.385,0,0,1-2.56445-1.39746A4.6029,4.6029,0,0,0,.8623,10.502L0,8.71484c1.29639-.67968,2.481.34961,3.43213,1.17676a6.2061,6.2061,0,0,0,1.17041.87744,6.155,6.155,0,0,0-.05566-1.46289c-.13965-1.25293-.31348-2.8125.98291-3.49267,1.29687-.68213,2.481.34814,3.4331,1.17529a6.14633,6.14633,0,0,0,1.17334.87695,6.16255,6.16255,0,0,0-.05518-1.46386c-.13964-1.25293-.313-2.8125.9834-3.49317,1.29737-.68066,2.48243.34766,3.43506,1.17432a6.08706,6.08706,0,0,0,1.17676.87744,6.10879,6.10879,0,0,0-.05371-1.4668C15.48389,2.24072,15.311.68066,16.6084,0l.92969,1.77051a6.55359,6.55359,0,0,0,.07226,1.50342c.13867,1.25293.31153,2.813-.98633,3.49365-1.29443.68066-2.48193-.34766-3.43506-1.17383a6.10625,6.10625,0,0,0-1.17529-.87744,6.14409,6.14409,0,0,0,.05469,1.46484c.13965,1.25293.313,2.8125-.9834,3.49317-1.29834.67724-2.48144-.34912-3.4331-1.17578a6.16492,6.16492,0,0,0-1.17286-.877A6.1357,6.1357,0,0,0,6.53467,9.085c.13965,1.25293.31347,2.8125-.98291,3.49268A1.84,1.84,0,0,1,4.68408,12.79883Z" style="fill:#ffb17d"/></svg>