<?xml version="1.0" encoding="UTF-8"?>
<svg width="1664px" height="642px" viewBox="0 0 1664 642" version="1.1" xmlns="http://www.w3.org/2000/svg" xmlns:xlink="http://www.w3.org/1999/xlink">
    <!-- Generator: Sketch 55 (78076) - https://sketchapp.com -->
    <title>Group 27</title>
    <desc>Created with Sketch.</desc>
    <g id="Design" stroke="none" stroke-width="1" fill="none" fill-rule="evenodd">
        <g id="Home" transform="translate(-69.000000, -11056.000000)">
            <g id="Footer" transform="translate(68.000000, 10830.000000)">
                <g id="Group-27" transform="translate(0.000000, 0.067063)">
                    <g id="Group-13-Copy" opacity="0.15" transform="translate(415.500000, 454.932937) rotate(-90.000000) translate(-415.500000, -454.932937) translate(340.500000, 398.432937)" fill="#A231EF">
                        <polygon id="Fill-1" points="0 0 30.453 0 30.453 30.452"></polygon>
                        <polygon id="Fill-4" points="119 41 149.452 41 149.452 71.452"></polygon>
                        <polygon id="Fill-6" points="40 41 70.452 41 70.452 71.452"></polygon>
                        <polygon id="Fill-8" points="0 82 30.453 82 30.453 112.452"></polygon>
                        <polygon id="Fill-11" points="40 82 70.452 82 70.452 112.452"></polygon>
                    </g>
                    <g id="Group-13-Copy-9" opacity="0.15" transform="translate(1250.500000, 454.932937) scale(-1, 1) rotate(-90.000000) translate(-1250.500000, -454.932937) translate(1175.500000, 398.432937)" fill="#A231EF">
                        <polygon id="Fill-1" points="0 0 30.453 0 30.453 30.452"></polygon>
                        <polygon id="Fill-4" points="119 41 149.452 41 149.452 71.452"></polygon>
                        <polygon id="Fill-6" points="40 41 70.452 41 70.452 71.452"></polygon>
                        <polygon id="Fill-8" points="0 82 30.453 82 30.453 112.452"></polygon>
                        <polygon id="Fill-11" points="40 82 70.452 82 70.452 112.452"></polygon>
                    </g>
                    <polygon id="Fill-1-Copy-3" fill="#1B2A50" transform="translate(1439.500000, 867.500000) rotate(-225.000000) translate(-1439.500000, -867.500000) " points="1599 1027 1280 1027 1280 708"></polygon>
                    <polygon id="Fill-1-Copy-14" fill="#1B2A50" transform="translate(226.500000, 867.500000) rotate(-225.000000) translate(-226.500000, -867.500000) " points="386 1027 67 1027 67 708"></polygon>
                    <polygon id="Fill-1-Copy-2" fill="#A231EF" transform="translate(1494.432937, 642.432937) rotate(-180.000000) translate(-1494.432937, -642.432937) " points="1518.93294 666.932937 1469.93294 666.932937 1469.93294 617.932937"></polygon>
                    <polygon id="Fill-1-Copy-15" fill="#A231EF" transform="translate(172.432937, 642.432937) scale(-1, 1) rotate(-180.000000) translate(-172.432937, -642.432937) " points="196.932937 666.932937 147.932937 666.932937 147.932937 617.932937"></polygon>
                    <polygon id="Fill-1-Copy" fill="#1B2A50" transform="translate(832.567063, 226.500000) rotate(-45.000000) translate(-832.567063, -226.500000) " points="992.067063 386 673.067063 386 673.067063 67"></polygon>
                    <path d="M857,451.932937 C857,438.680973 846.255368,427.932937 832.997807,427.932937 C819.744632,427.932937 809,438.680973 809,451.932937 C809,465.184901 819.744632,475.932937 832.997807,475.932937 C846.255368,475.932937 857,465.184901 857,451.932937" id="Fill-33" fill="#A231EF"></path>
                </g>
            </g>
        </g>
    </g>
</svg>