<svg xmlns="http://www.w3.org/2000/svg" viewBox="0 0 548.59082 168.83887"><title>footer-curvetext</title><path d="M0,155.65625l4.749-7.80957L6.50879,148.917l-3.5332,5.81055,2.957,1.79785,3.46-5.69141,1.76074,1.07032-3.46094,5.6914,3.16211,1.92188L14.3877,153.707l1.75976,1.07031-4.749,7.81055Z" style="fill:#a231ef"/><path d="M21.58984,137.38086l2.07813,6.07519-1.626,2.2793-2.665-8.042-8.0205.05273,1.626-2.27929,5.98633.04394-2.00293-5.6289,1.63672-2.29493,2.55859,7.57129,8.47559-.07031-1.626,2.2793Z" style="fill:#a231ef"/><path d="M26.31055,117.68359l3.74609-4.50683a4.18415,4.18415,0,1,1,6.42871,5.3457l-2.25,2.707,3.83008,3.1836-1.49609,1.7998Zm5.126-2.94336-2.0459,2.46094,3.26075,2.71094,2.0459-2.46094a2.12582,2.12582,0,1,0-3.26075-2.71094Z" style="fill:#a231ef"/><path d="M41.293,100.43457l6.32519-6.59668,1.48633,1.42578-4.70508,4.90723,2.49707,2.39453,4.6084-4.80664,1.48731,1.4248-4.6084,4.80762,2.66992,2.55957,4.70508-4.90723,1.4873,1.42481L50.9209,109.666Z" style="fill:#a231ef"/><path d="M66.09961,87.76758l-1.72266,1.55566,3.33985,3.69727-1.73731,1.56933-8.94531-9.90332,4.34961-3.92968a4.05128,4.05128,0,0,1,6.04.17968,3.74242,3.74242,0,0,1,.2832,5.02832L73.64062,87.669l-2.0039,1.81054ZM62.52832,82.501l-2.376,2.1455L62.99609,87.794l2.375-2.14551A2.1262,2.1262,0,1,0,62.52832,82.501Z" style="fill:#a231ef"/><path d="M74.57129,69.55957l1.83008-1.458L84.7168,78.5332l-1.83008,1.459Z" style="fill:#a231ef"/><path d="M98.45605,55.97949l2.377,10.64063-.82227.56933-9.10449-5.98437,5.749,8.30664-1.9248,1.33105L87.1377,59.87207l2.71484-1.87891,8.08789,5.3252-2.11719-9.457,2.71387-1.87793,7.59277,10.97168-1.9248,1.331Z" style="fill:#a231ef"/><path d="M110.0957,44.76855l7.90137-4.5957,1.03516,1.78125-5.87793,3.419,1.73925,2.99023,5.75782-3.34863,1.03515,1.78125-5.75683,3.34863L117.79,53.34277l5.87793-3.41894,1.03613,1.78027-7.90137,4.5957Z" style="fill:#a231ef"/><path d="M133.25879,36.209,137.501,44.96l-2.10743,1.02051-5.82128-12.00879,2.16113-1.04785,10.26758,5.54-4.12793-8.5166,2.10644-1.02051,5.82227,12.00976-2.03516.98536Z" style="fill:#a231ef"/><path d="M156.1748,24.26953,152.417,25.752l-.75586-1.916,9.69141-3.82324.75586,1.915-3.75781,1.4834,4.13964,10.49024-2.17578.8584Z" style="fill:#a231ef"/><path d="M205.08008,15.875a2.27933,2.27933,0,1,1,2.7041,1.72852A2.2788,2.2788,0,0,1,205.08008,15.875Z" style="fill:#a231ef"/><path d="M258.17285.085a6.61457,6.61457,0,0,1,7.11524,6.58887,6.8177,6.8177,0,1,1-13.6211.60351A6.61509,6.61509,0,0,1,258.17285.085Zm.0918,2.07715c-2.69727.11914-4.32324,2.25293-4.20117,5.00879.12109,2.73633,1.93066,4.7373,4.62695,4.61816,2.67676-.11816,4.32227-2.27246,4.20117-5.00879C262.76953,4.02344,260.94043,2.043,258.26465,2.16211Z" style="fill:#a231ef"/><path d="M278.01465,0l5.85742.1875a4.06875,4.06875,0,0,1,4.22363,4.31738A4.07984,4.07984,0,0,1,283.60449,8.543l-3.51855-.11231-.15918,4.97657-2.33887-.07422Zm5.47168,2.23633-3.19824-.10254-.13672,4.2373,3.19922.10254a2.10247,2.10247,0,0,0,2.3457-2.0459A2.10187,2.10187,0,0,0,283.48633,2.23633Z" style="fill:#a231ef"/><path d="M303.78223,3.58691l-4.01856-.41308.21-2.04883,10.36719,1.06445-.21094,2.04981-4.01953-.41308L304.958,15.04883l-2.32813-.23926Z" style="fill:#a231ef"/><path d="M322.78125,3.97852l2.30762.37793L322.93164,17.5166l-2.30762-.3789Z" style="fill:#a231ef"/><path d="M348.89258,12.60547l-6.31153,8.8916-.97265-.22949L339.95508,10.498l-2.31934,9.832L335.3584,19.793l3.0625-12.98633,3.21289.75781,1.46191,9.57325,5.60645-7.90625,3.21191.75781-3.06347,12.98633-2.27735-.53711Z" style="fill:#a231ef"/><path d="M364.88379,13.72461l2.23535.69336L363.1709,27.16016l-2.23535-.69336Z" style="fill:#a231ef"/><path d="M375.33691,29.20312l9.69239-6.36425-6.37891-2.40918.72754-1.92676,9.22266,3.4834-.6709,1.77637-9.69239,6.36523,6.50977,2.458-.72754,1.92773-9.35449-3.5332Z" style="fill:#a231ef"/><path d="M400.72949,27.08594l8.29785,3.82812-.8623,1.87012-6.17383-2.84766-1.44922,3.1416,6.04688,2.78907-.86328,1.87011-6.04688-2.78906-1.54883,3.35938,6.17285,2.84765-.8623,1.87012-8.29883-3.82812Z" style="fill:#a231ef"/><path d="M442.62891,59.82422a2.28029,2.28029,0,1,1,.624,3.14941A2.27872,2.27872,0,0,1,442.62891,59.82422Z" style="fill:#a231ef"/><path d="M479.74512,90.40039a5.75489,5.75489,0,0,0,1.80468,4.23535c1.39649,1.31836,2.59375,1.15723,3.19825.5166.82422-.87207.03906-2.10937-.85059-3.52636-1.21484-1.88965-2.63672-4.11328-.70019-6.16309,1.51074-1.59961,4.08886-1.50391,6.21191.501a6.94735,6.94735,0,0,1,2.3584,4.78613l-2.16895.34473a5.4262,5.4262,0,0,0-1.76367-3.75586c-1.00293-.94727-2.0957-1.07129-2.78223-.34473-.71386.75586.041,1.9375.915,3.31348,1.21485,1.917,2.65332,4.21093.66211,6.31933-1.52441,1.61426-3.96386,1.92481-6.58105-.54785a7.139,7.139,0,0,1-2.48535-5.26269Z" style="fill:#a231ef"/><path d="M496.832,102.99023a6.70533,6.70533,0,0,1,9.749.44141,6.07993,6.07993,0,0,1,1.4668,6.05566l-2.10156-.78906a4.0021,4.0021,0,0,0-.90137-3.86328,4.83178,4.83178,0,0,0-7.11914,6.501,3.95878,3.95878,0,0,0,3.7666,1.24707l.59571,2.165a6.10644,6.10644,0,0,1-5.89844-2.00879A6.70539,6.70539,0,0,1,496.832,102.99023Z" style="fill:#a231ef"/><path d="M514.89648,130.51562l-3.8955-4.97656-2.62012.80664-1.57813-2.01562,13.7334-4.09766,1.79981,2.29883-7.27246,12.34961-1.57813-2.01563Zm-1.86718-5.72656,3.082,3.93653,3.76562-6.12305Z" style="fill:#a231ef"/><path d="M532.64258,136.5791l1.30664,1.94043-9.35449,6.29981,3.2832,4.876-1.708,1.15039-4.59082-6.8164Z" style="fill:#a231ef"/><path d="M544.0166,154.24707l4.57422,7.915-1.78418,1.03125-3.40332-5.88867-2.99609,1.73144,3.334,5.76758L541.957,165.835l-3.333-5.76758-3.2041,1.85157,3.40332,5.88867-1.78418,1.03125-4.57422-7.915Z" style="fill:#a231ef"/></svg>