<svg xmlns="http://www.w3.org/2000/svg" viewBox="0 0 452 45"><title>footer-wave</title><path d="M435.70758,21.72943c-3.20636,9.1629-6.52258,18.63782-11.96185,18.63782-5.44019,0-8.75641-9.4754-11.96277-18.63928C408.04462,11.046,404.17889,0,395.49152,0s-12.55219,11.04651-16.29047,21.72937c-3.20642,9.1629-6.52167,18.63788-11.9599,18.63788-5.43927,0-8.75452-9.47547-11.96088-18.63837C351.54193,11.046,347.67621,0,338.98981,0S326.4386,11.046,322.70032,21.72888c-3.20642,9.1629-6.52161,18.63837-11.9599,18.63837s-8.75354-9.47547-11.9599-18.63837C295.04218,11.046,291.17743,0,282.491,0c-8.68549,0-12.55023,11.046-16.2876,21.72845-3.20636,9.1634-6.52063,18.6388-11.95892,18.6388-5.43628,0-8.75159-9.47492-11.957-18.63782C238.55023,11.04651,234.68549,0,226,0c-8.68738,0-12.55408,11.04651-16.29242,21.72943-3.20636,9.1629-6.52258,18.63782-11.96185,18.63782-5.44019,0-8.75641-9.4754-11.96277-18.63928C182.04462,11.046,178.17889,0,169.49152,0s-12.55219,11.04651-16.29047,21.72937c-3.20642,9.1629-6.52167,18.63788-11.9599,18.63788-5.43927,0-8.75452-9.47547-11.96088-18.63837C125.54193,11.046,121.67621,0,112.98981,0S100.4386,11.046,96.70032,21.72888c-3.20642,9.1629-6.52161,18.63837-11.9599,18.63837s-8.75354-9.47547-11.9599-18.63837C69.04218,11.046,65.17743,0,56.491,0,47.80554,0,43.9408,11.046,40.20343,21.72845c-3.20636,9.1634-6.52063,18.6388-11.95892,18.6388-5.43628,0-8.75159-9.47492-11.957-18.63782C12.55023,11.04651,8.68549,0,0,0V4.63269c5.43732,0,8.75256,9.4754,11.958,18.63886C15.69531,33.954,19.56006,45,28.24451,45,36.931,45,40.79572,33.95349,44.53308,23.27057c3.20538-9.1629,6.52057-18.63788,11.958-18.63788,5.43823,0,8.75354,9.4754,11.9599,18.63837,3.73828,10.68286,7.603,21.72888,16.28949,21.72888s12.55114-11.046,16.28949-21.72888c3.20636-9.16291,6.5216-18.63837,11.9599-18.63837,5.43921,0,8.75451,9.4754,11.96087,18.63837C128.689,33.954,132.55469,45,141.24115,45s12.55115-11.046,16.28949-21.72845c3.20636-9.1634,6.52161-18.63886,11.96088-18.63886s8.75543,9.475,11.96179,18.63788C185.19165,33.95349,189.05835,45,197.74573,45s12.55316-11.04608,16.29144-21.728C217.24353,14.10815,220.55981,4.63269,226,4.63269c5.43732,0,8.75256,9.4754,11.958,18.63886C241.69531,33.954,245.56006,45,254.24451,45c8.68652,0,12.55121-11.04651,16.28857-21.72943,3.20538-9.1629,6.52057-18.63788,11.958-18.63788,5.43823,0,8.75354,9.4754,11.9599,18.63837,3.73828,10.68286,7.603,21.72888,16.28949,21.72888s12.55114-11.046,16.28949-21.72888c3.20636-9.16291,6.5216-18.63837,11.9599-18.63837,5.43921,0,8.75451,9.4754,11.96087,18.63837C354.689,33.954,358.55469,45,367.24115,45s12.55115-11.046,16.28949-21.72845c3.20636-9.1634,6.52161-18.63886,11.96088-18.63886s8.75543,9.475,11.96179,18.63788C411.19165,33.95349,415.05835,45,423.74573,45s12.55316-11.04608,16.29144-21.728C443.24353,14.10815,446.55981,4.63269,452,4.63269V0C443.31262,0,439.44592,11.04651,435.70758,21.72943Z" style="fill:#f2b2b0"/></svg>