<svg xmlns="http://www.w3.org/2000/svg" viewBox="0 0 97.67306 125.93437"><title>level5-paper</title><rect width="97.67306" height="125.93437" style="fill:#ffc0d8"/><polygon points="30.795 14.6 43.09 14.6 43.09 26.894 30.795 14.6" style="fill:#123c45"/><polygon points="24.575 58.721 12.281 58.721 12.28 46.426 24.575 58.721" style="fill:#123c45"/><rect x="12.28049" y="14.59998" width="12.29452" height="25.60568" style="fill:#123c45"/><circle cx="34.95662" cy="35.81188" r="4.39378" style="fill:#123c45"/><circle cx="71.94221" cy="30.22309" r="15.62313" style="fill:#a231ef"/><path d="M87.56534,30.22309A15.62313,15.62313,0,0,0,71.94221,14.6V30.22309Z" style="fill:#123c45"/><rect x="12.28049" y="89.803" width="7.58736" height="12.39904" style="fill:#a231ef"/><rect x="23.8915" y="82.97415" width="7.58736" height="19.22788" style="fill:#a231ef"/><rect x="35.5025" y="70.64679" width="7.58736" height="31.55524" style="fill:#123c45"/><line x1="59.44467" y1="51.68412" x2="84.43975" y2="51.68412" style="fill:none;stroke:#123c45;stroke-miterlimit:10;stroke-width:2px"/><line x1="63.47741" y1="57.20392" x2="80.407" y2="57.20392" style="fill:none;stroke:#123c45;stroke-miterlimit:10;stroke-width:2px"/><line x1="15.18763" y1="109.49371" x2="40.18271" y2="109.49371" style="fill:none;stroke:#123c45;stroke-miterlimit:10;stroke-width:2px"/><line x1="19.22038" y1="115.0135" x2="36.14997" y2="115.0135" style="fill:none;stroke:#123c45;stroke-miterlimit:10;stroke-width:2px"/><line x1="58.52711" y1="109.49371" x2="83.52219" y2="109.49371" style="fill:none;stroke:#123c45;stroke-miterlimit:10;stroke-width:2px"/><line x1="62.55985" y1="115.0135" x2="79.48944" y2="115.0135" style="fill:none;stroke:#123c45;stroke-miterlimit:10;stroke-width:2px"/><g style="opacity:0.45"><polygon points="56.319 102.202 66.046 90.129 69.808 89.113 79.889 76.368 82.257 78.573 87.565 70.647 87.565 102.202 56.319 102.202" style="fill:#a231ef"/></g><polyline points="56.319 102.202 66.046 90.129 69.808 89.113 79.889 76.368 82.257 78.573 87.565 70.647" style="fill:none;stroke:#123c45;stroke-miterlimit:10;stroke-width:2px"/></svg>