<svg xmlns="http://www.w3.org/2000/svg" viewBox="0 0 76 5.54297"><title>level4-wave</title><path d="M72.80164,2.21094c-.63514.94672-.95368,1.332-1.55634,1.332s-.92126-.38525-1.55634-1.332C69.063,1.27783,68.2052,0,66.49054,0c-1.71411,0-2.57147,1.27783-3.1969,2.21143C62.659,3.15772,62.34045,3.543,61.73877,3.543c-.60028,0-.91834-.38525-1.552-1.331C59.56134,1.27832,58.705,0,56.99127,0s-2.56952,1.27832-3.19494,2.21192c-.63367.9458-.95124,1.331-1.55152,1.331-.60119,0-.91882-.38525-1.553-1.33154C50.06641,1.27832,49.21,0,47.49634,0s-2.57,1.27832-3.19544,2.21143c-.63366.94629-.95178,1.33154-1.55249,1.33154s-.91876-.38525-1.55249-1.33154C40.5705,1.27832,39.71368,0,38,0c-1.71466,0-2.57245,1.27783-3.19836,2.21094-.63514.94672-.95368,1.332-1.55634,1.332s-.92126-.38525-1.55634-1.332C31.063,1.27783,30.2052,0,28.49054,0c-1.71411,0-2.57147,1.27783-3.1969,2.21143C24.659,3.15772,24.34045,3.543,23.73877,3.543c-.60028,0-.91834-.38525-1.552-1.331C21.56134,1.27832,20.705,0,18.99127,0s-2.56952,1.27832-3.19494,2.21192c-.63367.9458-.95124,1.331-1.55152,1.331-.60119,0-.91882-.38525-1.553-1.33154C12.06641,1.27832,11.21,0,9.49634,0s-2.57,1.27832-3.19544,2.21143C5.66724,3.15772,5.34912,3.543,4.74841,3.543s-.91876-.38525-1.55249-1.33154C2.5705,1.27832,1.71368,0,0,0V2c.60126,0,.91882.38526,1.553,1.33154C2.17841,4.26465,3.03473,5.543,4.74841,5.543s2.57007-1.27832,3.1955-2.21143C8.57758,2.38526,8.89563,2,9.49634,2s.91882.38526,1.55249,1.33154c.62543.93311,1.4823,2.21143,3.196,2.21143,1.7132,0,2.569-1.27832,3.19446-2.21143C18.073,2.38526,18.391,2,18.99127,2c.60077,0,.91883.38526,1.55249,1.33154.62543.93311,1.48181,2.21143,3.195,2.21143,1.71411,0,2.57147-1.27783,3.1969-2.21143C27.57031,2.38526,27.88885,2,28.49054,2c.60272,0,.92126.38526,1.5564,1.332.62591.93317,1.4837,2.21094,3.19836,2.21094s2.57245-1.27783,3.19836-2.211C37.0788,2.38526,37.39734,2,38,2c.60126,0,.91882.38526,1.553,1.33154.62543.93311,1.48175,2.21143,3.19543,2.21143s2.57007-1.27832,3.1955-2.21143C46.57758,2.38526,46.89563,2,47.49634,2s.91882.38526,1.55249,1.33154c.62543.93311,1.4823,2.21143,3.196,2.21143,1.7132,0,2.569-1.27832,3.19446-2.21143C56.073,2.38526,56.391,2,56.99127,2c.60077,0,.91883.38526,1.55249,1.33154.62543.93311,1.48181,2.21143,3.195,2.21143,1.71411,0,2.57147-1.27783,3.1969-2.21143C65.57031,2.38526,65.88885,2,66.49054,2c.60272,0,.92126.38526,1.5564,1.332.62591.93317,1.4837,2.21094,3.19836,2.21094s2.57245-1.27783,3.19836-2.211C75.0788,2.38526,75.39734,2,76,2V0C74.28534,0,73.42755,1.27783,72.80164,2.21094Z" style="fill:#a231ef;opacity:0.4000000059604645;isolation:isolate"/></svg>