<svg xmlns="http://www.w3.org/2000/svg" xmlns:xlink="http://www.w3.org/1999/xlink" viewBox="0 0 69.17322 17.56597"><defs><linearGradient id="a" x1="7.57309" y1="8.79568" x2="61.61046" y2="8.79568" gradientTransform="translate(3.90624 27.02224) rotate(-44.99749)" gradientUnits="userSpaceOnUse"><stop offset="0" stop-color="#ff574a" stop-opacity="0.5"/><stop offset="0.01132" stop-color="#ff574a" stop-opacity="0.4905"/><stop offset="0.2385" stop-color="#ff574a" stop-opacity="0.31592"/><stop offset="0.45714" stop-color="#ff574a" stop-opacity="0.17861"/><stop offset="0.66239" stop-color="#ff574a" stop-opacity="0.08023"/><stop offset="0.84896" stop-color="#ff574a" stop-opacity="0.02068"/><stop offset="1" stop-color="#ff574a" stop-opacity="0"/></linearGradient></defs><title>level1-tube</title><path d="M34.5866-25.80362h0a8.78208,8.78208,0,0,1,8.78208,8.78208V34.58753a8.78207,8.78207,0,0,1-8.78207,8.78207h0a8.78211,8.78211,0,0,1-8.78211-8.78211v-51.609A8.78209,8.78209,0,0,1,34.5866-25.80362Z" transform="matrix(0.00004, 1, -1, 0.00004, 43.36808, -25.80401)" style="fill:url(#a)"/><path d="M34.5866-25.80362h0a8.78208,8.78208,0,0,1,8.78208,8.78208V34.58753a8.78207,8.78207,0,0,1-8.78207,8.78207h0a8.78211,8.78211,0,0,1-8.78211-8.78211v-51.609A8.78209,8.78209,0,0,1,34.5866-25.80362Z" transform="matrix(0.00004, 1, -1, 0.00004, 43.36808, -25.80401)" style="fill:url(#a)"/><path d="M34.5866-25.80362h0a8.78208,8.78208,0,0,1,8.78208,8.78208V34.58753a8.78207,8.78207,0,0,1-8.78207,8.78207h0a8.78211,8.78211,0,0,1-8.78211-8.78211v-51.609A8.78209,8.78209,0,0,1,34.5866-25.80362Z" transform="matrix(0.00004, 1, -1, 0.00004, 43.36808, -25.80401)" style="fill:url(#a)"/></svg>