<svg xmlns="http://www.w3.org/2000/svg" viewBox="0 0 196 20"><title>level2-wave</title><path d="M188.93341,9.37988c-1.39117,3.95606-2.82947,8.04639-5.18939,8.04639-2.36035,0-3.79865-4.09082-5.18982-8.04639C176.93262,4.76855,175.25568,0,171.48761,0c-3.7666,0-5.44214,4.76855-7.06274,9.38037-1.39014,3.95557-2.82746,8.0459-5.18494,8.0459-2.35895,0-3.79675-4.09033-5.18744-8.0459C152.43146,4.76855,150.75494,0,146.98785,0c-3.76611,0-5.44165,4.76855-7.06225,9.38037-1.3902,3.95557-2.82752,8.0459-5.185,8.0459-2.35644,0-3.79382-4.09033-5.18347-8.0459C127.937,4.76855,126.262,0,122.49634,0c-3.76612,0-5.44214,4.76855-7.06269,9.37988-1.39019,3.95606-2.828,8.04639-5.186,8.04639-2.35748,0-3.7948-4.09033-5.185-8.0459C103.44214,4.76855,101.7666,0,98,0c-3.76807,0-5.44507,4.76855-7.06659,9.37988-1.39117,3.95606-2.82947,8.04639-5.18939,8.04639-2.36035,0-3.79865-4.09082-5.18982-8.04639C78.93262,4.76855,77.25568,0,73.48761,0c-3.7666,0-5.44214,4.76855-7.06268,9.38037-1.3902,3.95557-2.82752,8.0459-5.185,8.0459-2.35889,0-3.79669-4.09033-5.18738-8.0459C54.43146,4.76855,52.755,0,48.98785,0,45.22174,0,43.5462,4.76855,41.9256,9.38037c-1.3902,3.95557-2.82752,8.0459-5.185,8.0459-2.35644,0-3.79376-4.09033-5.18347-8.0459C29.937,4.76855,28.262,0,24.49634,0c-3.76612,0-5.44214,4.76855-7.06269,9.37988-1.39019,3.95606-2.828,8.04639-5.186,8.04639-2.35748,0-3.7948-4.09033-5.185-8.0459C5.44214,4.76855,3.7666,0,0,0V2c2.358,0,3.79529,4.09033,5.18542,8.04639,1.62061,4.61132,3.29615,9.37988,7.06226,9.37988,3.7666,0,5.44263-4.76856,7.06317-9.38037C20.70105,6.09033,22.13885,2,24.49634,2c2.3565,0,3.79382,4.09033,5.18359,8.0459C31.3,14.65771,32.975,19.42627,36.74066,19.42627c3.76618,0,5.44165-4.76856,7.06226-9.38037C45.19312,6.09033,46.63043,2,48.98785,2c2.359,0,3.79676,4.09033,5.18738,8.0459,1.6211,4.61181,3.29755,9.38037,7.06464,9.38037,3.76617,0,5.44165-4.76856,7.06225-9.37988C69.69232,6.09033,71.12964,2,73.48761,2c2.35992,0,3.79822,4.09033,5.18933,8.0459,1.62158,4.61181,3.29852,9.38037,7.06708,9.38037,3.76813,0,5.44507-4.76856,7.06665-9.37988C94.20178,6.09033,95.64008,2,98,2c2.358,0,3.79529,4.09033,5.18549,8.04639,1.62054,4.61132,3.29608,9.37988,7.06219,9.37988,3.7666,0,5.44263-4.76856,7.06317-9.38037C118.70105,6.09033,120.13885,2,122.49634,2c2.3565,0,3.79382,4.09033,5.18353,8.0459,1.62012,4.61181,3.29511,9.38037,7.06079,9.38037,3.76611,0,5.44159-4.76856,7.0622-9.38037C143.19305,6.09033,144.63037,2,146.98785,2c2.35895,0,3.79676,4.09033,5.18738,8.0459,1.6211,4.61181,3.29755,9.38037,7.06464,9.38037,3.76617,0,5.44165-4.76856,7.06225-9.37988C167.69232,6.09033,169.12964,2,171.48761,2c2.35992,0,3.79822,4.09033,5.18933,8.0459,1.62158,4.61181,3.29852,9.38037,7.06708,9.38037,3.76813,0,5.44507-4.76856,7.06659-9.37988C192.20178,6.09033,193.64008,2,196,2V0C192.23193,0,190.55493,4.76855,188.93341,9.37988Z" style="fill:#f2b2b0"/></svg>