<svg xmlns="http://www.w3.org/2000/svg" viewBox="0 0 93.32423 6"><title>level1-wave</title><path d="M40.81885,6C38.85156,6,37.876,4.66357,37.09277,3.58936,36.35205,2.57422,35.88867,2,34.98193,2c-.90576,0-1.36865.57422-2.10839,1.58887C32.09033,4.66309,31.11523,6,29.14844,6c-1.96582,0-2.93994-1.33691-3.72217-2.41113C24.687,2.57422,24.22461,2,23.32031,2c-.90527,0-1.36767.57422-2.10742,1.58887C20.43018,4.66309,19.45557,6,17.48926,6s-2.94043-1.33691-3.72315-2.41113C13.02637,2.57422,12.564,2,11.65918,2c-.9043,0-1.3667.57422-2.10645,1.58887C8.77,4.66309,7.7959,6,5.82959,6,3.86377,6,2.88965,4.66309,2.10693,3.58887,1.36719,2.57422.90479,2,0,2V0C1.96631,0,2.94043,1.33691,3.72314,2.41113,4.46289,3.42578,4.92529,4,5.82959,4c.90479,0,1.36719-.57422,2.10693-1.58887C8.71924,1.33691,9.69336,0,11.65918,0c1.96631,0,2.94043,1.33691,3.72314,2.41113C16.12207,3.42578,16.58447,4,17.48926,4c.90527,0,1.36767-.57422,2.10742-1.58887C20.37939,1.33691,21.354,0,23.32031,0c1.96582,0,2.93994,1.33691,3.72217,2.41113C27.78174,3.42578,28.24414,4,29.14844,4c.90576,0,1.36865-.57422,2.10888-1.58936C32.04053,1.33643,33.01514,0,34.98193,0,36.94922,0,37.9248,1.33643,38.708,2.41064,39.44873,3.42578,39.91211,4,40.81885,4c.90722,0,1.3706-.57422,2.11133-1.58936C43.71338,1.33643,44.689,0,46.65625,0V2c-.90674,0-1.37012.57422-2.11084,1.58936C43.76172,4.66357,42.78662,6,40.81885,6Z" style="fill:#f2b2b0"/><path d="M87.48683,6C85.51954,6,84.544,4.66357,83.76075,3.58936,83.02,2.57422,82.55665,2,81.64991,2c-.90576,0-1.36865.57422-2.10839,1.58887C78.75831,4.66309,77.78321,6,75.81642,6c-1.96582,0-2.93994-1.33691-3.72217-2.41113C71.355,2.57422,70.89259,2,69.98829,2c-.90527,0-1.36767.57422-2.10742,1.58887C67.09816,4.66309,66.12355,6,64.15724,6s-2.94043-1.33691-3.72315-2.41113C59.69435,2.57422,59.23194,2,58.32716,2c-.9043,0-1.3667.57422-2.10645,1.58887C55.438,4.66309,54.46388,6,52.49757,6c-1.96582,0-2.93994-1.33691-3.72266-2.41113C48.03517,2.57422,47.57277,2,46.668,2V0c1.96631,0,2.94043,1.33691,3.72314,2.41113C51.13087,3.42578,51.59327,4,52.49757,4c.90479,0,1.36719-.57422,2.10693-1.58887C55.38722,1.33691,56.36134,0,58.32716,0c1.96631,0,2.94043,1.33691,3.72314,2.41113C62.79005,3.42578,63.25245,4,64.15724,4c.90527,0,1.36767-.57422,2.10742-1.58887C67.04737,1.33691,68.022,0,69.98829,0c1.96582,0,2.93994,1.33691,3.72217,2.41113C74.44972,3.42578,74.91212,4,75.81642,4c.90576,0,1.36865-.57422,2.10888-1.58936C78.70851,1.33643,79.68312,0,81.64991,0,83.6172,0,84.59278,1.33643,85.376,2.41064,86.11671,3.42578,86.58009,4,87.48683,4c.90722,0,1.3706-.57422,2.11133-1.58936C90.38136,1.33643,91.35694,0,93.32423,0V2c-.90674,0-1.37012.57422-2.11084,1.58936C90.4297,4.66357,89.4546,6,87.48683,6Z" style="fill:#f2b2b0"/></svg>