<svg xmlns="http://www.w3.org/2000/svg" xmlns:xlink="http://www.w3.org/1999/xlink" viewBox="0 0 171.30057 127.94088"><defs><linearGradient id="a" x1="82.44458" y1="127.94088" x2="82.44458" y2="3.69273" gradientUnits="userSpaceOnUse"><stop offset="0" stop-color="#ff574a" stop-opacity="0.5"/><stop offset="0.10829" stop-color="#ff574a" stop-opacity="0.36469"/><stop offset="0.23909" stop-color="#ff574a" stop-opacity="0.22854"/><stop offset="0.36278" stop-color="#ff574a" stop-opacity="0.1302"/><stop offset="0.47521" stop-color="#ff574a" stop-opacity="0.07068"/><stop offset="0.56625" stop-color="#ff574a" stop-opacity="0.05"/></linearGradient><linearGradient id="b" x1="6.57316" y1="22.80902" x2="48.84648" y2="65.08233" gradientUnits="userSpaceOnUse"><stop offset="0" stop-color="#ff574a" stop-opacity="0.5"/><stop offset="0.19123" stop-color="#ff574a" stop-opacity="0.36469"/><stop offset="0.42224" stop-color="#ff574a" stop-opacity="0.22854"/><stop offset="0.64067" stop-color="#ff574a" stop-opacity="0.1302"/><stop offset="0.83923" stop-color="#ff574a" stop-opacity="0.07068"/><stop offset="1" stop-color="#ff574a" stop-opacity="0.05"/></linearGradient><linearGradient id="c" x1="48.48873" y1="23.5912" x2="108.20752" y2="83.30998" xlink:href="#b"/><linearGradient id="d" x1="114.11017" y1="36.05575" x2="152.47812" y2="36.05575" gradientUnits="userSpaceOnUse"><stop offset="0" stop-color="#ff574a" stop-opacity="0.5"/><stop offset="0.01132" stop-color="#ff574a" stop-opacity="0.4905"/><stop offset="0.2385" stop-color="#ff574a" stop-opacity="0.31592"/><stop offset="0.45714" stop-color="#ff574a" stop-opacity="0.17861"/><stop offset="0.66239" stop-color="#ff574a" stop-opacity="0.08023"/><stop offset="0.84896" stop-color="#ff574a" stop-opacity="0.02068"/><stop offset="1" stop-color="#ff574a" stop-opacity="0"/></linearGradient><linearGradient id="e" x1="114.11017" y1="81.16968" x2="152.47812" y2="81.16968" xlink:href="#d"/></defs><title>level3-box</title><rect y="3.69273" width="164.88917" height="124.24815" style="fill:#2f3336"/><rect y="3.69273" width="164.88917" height="124.24815" style="opacity:0.25;fill:url(#a)"/><polygon points="171.301 124.248 164.889 127.941 164.889 3.693 171.301 0 171.301 124.248" style="fill:#ffdb7d"/><polygon points="6.411 0 171.301 0 164.889 3.693 0 3.693 6.411 0" style="fill:#ffc0d8"/><rect x="12.69024" y="15.27074" width="30.03916" height="57.34987" rx="2.41906" style="fill:url(#b)"/><circle cx="27.70982" cy="65.36915" r="2.11964" style="fill:#2f3336"/><rect x="54.91691" y="15.27074" width="46.86243" height="76.3597" rx="3.22091" style="fill:url(#c)"/><circle cx="78.34812" cy="86.2633" r="2.82224" style="fill:#2f3336"/><rect x="53.97435" y="79.4823" width="50.11127" height="1.78922" style="fill:#2f3336"/><circle cx="133.29414" cy="36.05575" r="19.18398" style="fill:url(#d)"/><circle cx="133.29414" cy="81.16968" r="19.18398" style="fill:url(#e)"/><polyline points="152.478 81.17 133.294 81.17 114.11 81.17" style="fill:none;stroke:#ff574a;stroke-miterlimit:10;stroke-width:2px"/></svg>