<svg xmlns="http://www.w3.org/2000/svg" viewBox="0 0 404 142.83174"><title>level1-tris</title><polygon points="151.763 0 190.468 0 190.468 38.705 151.763 0" style="fill:#123c45"/><polygon points="151.763 52.063 190.468 52.063 190.468 90.769 151.763 52.063" style="fill:#123c45"/><polygon points="151.763 104.126 190.468 104.126 190.468 142.832 151.763 104.126" style="fill:#123c45"/><polygon points="0 0 38.705 0 38.705 38.705 0 0" style="fill:#123c45"/><polygon points="0 52.063 38.705 52.063 38.705 90.769 0 52.063" style="fill:#123c45"/><polygon points="0 104.126 38.705 104.126 38.705 142.832 0 104.126" style="fill:#123c45"/><polygon points="50.588 0 89.293 0 89.293 38.705 50.588 0" style="fill:#123c45"/><polygon points="50.588 52.063 89.293 52.063 89.293 90.769 50.588 52.063" style="fill:#123c45"/><polygon points="50.588 104.126 89.293 104.126 89.293 142.832 50.588 104.126" style="fill:#123c45"/><polygon points="101.175 0 139.881 0 139.88 38.705 101.175 0" style="fill:#123c45"/><polygon points="101.175 52.063 139.881 52.063 139.88 90.769 101.175 52.063" style="fill:#123c45"/><polygon points="101.175 104.126 139.881 104.126 139.88 142.832 101.175 104.126" style="fill:#123c45"/><polygon points="201.995 0 240.7 0 240.7 38.705 201.995 0" style="fill:#123c45"/><polygon points="201.995 52.063 240.7 52.063 240.7 90.769 201.995 52.063" style="fill:#123c45"/><polygon points="201.995 104.126 240.7 104.126 240.7 142.832 201.995 104.126" style="fill:#123c45"/><polygon points="353.809 0 392.514 0 392.514 38.705 353.809 0" style="fill:#123c45"/><polygon points="353.809 52.063 392.514 52.063 392.514 90.769 353.809 52.063" style="fill:#123c45"/><polygon points="353.809 104.126 392.514 104.126 392.514 142.832 353.809 104.126" style="fill:#123c45"/><polygon points="252.634 0 291.339 0 291.339 38.705 252.634 0" style="fill:#123c45"/><polygon points="252.634 52.063 291.339 52.063 291.339 90.769 252.634 52.063" style="fill:#123c45"/><polygon points="252.634 104.126 291.339 104.126 291.339 142.832 252.634 104.126" style="fill:#123c45"/><polygon points="303.221 0 341.927 0 341.926 38.705 303.221 0" style="fill:#123c45"/><polygon points="303.221 52.063 341.927 52.063 341.926 90.769 303.221 52.063" style="fill:#123c45"/><polygon points="303.221 104.126 341.927 104.126 341.926 142.832 303.221 104.126" style="fill:#123c45"/></svg>