<svg xmlns="http://www.w3.org/2000/svg" xmlns:xlink="http://www.w3.org/1999/xlink" viewBox="0 0 18.77129 122.06133"><defs><linearGradient id="a" y1="61.03067" x2="18.77129" y2="61.03067" gradientUnits="userSpaceOnUse"><stop offset="0" stop-color="#ff574a" stop-opacity="0.5"/><stop offset="0.01132" stop-color="#ff574a" stop-opacity="0.4905"/><stop offset="0.2385" stop-color="#ff574a" stop-opacity="0.31592"/><stop offset="0.45714" stop-color="#ff574a" stop-opacity="0.17861"/><stop offset="0.66239" stop-color="#ff574a" stop-opacity="0.08023"/><stop offset="0.84896" stop-color="#ff574a" stop-opacity="0.02068"/><stop offset="1" stop-color="#ff574a" stop-opacity="0"/></linearGradient></defs><title>level4-tube-bot</title><path d="M18.77129,0V112.6757a9.41323,9.41323,0,0,1-9.38564,9.38563h0A9.41322,9.41322,0,0,1,0,112.6757V0Z" style="fill:#2f3336"/><path d="M18.77129,0V112.6757a9.41323,9.41323,0,0,1-9.38564,9.38563h0A9.41322,9.41322,0,0,1,0,112.6757V0Z" style="fill:#a231ef"/><path d="M18.77129,0V112.6757a9.41323,9.41323,0,0,1-9.38564,9.38563h0A9.41322,9.41322,0,0,1,0,112.6757V0Z" style="fill:url(#a)"/></svg>