<svg xmlns="http://www.w3.org/2000/svg" viewBox="0 0 120 7.1499"><title>level3-wave</title><path d="M52.49548,7.1499c-2.384,0-3.59009-1.65527-4.55967-2.98584C46.95843,2.82227,46.29318,2,44.991,2c-1.30074,0-1.96549.82227-2.9424,2.16406C41.08,5.49414,39.87485,7.1499,37.49187,7.1499c-2.38348,0-3.58912-1.65576-4.55821-2.98584C31.95672,2.82227,31.29148,2,29.99024,2c-1.30074,0-1.9655.82227-2.9424,2.16406-.9686,1.33008-2.17376,2.98584-4.55673,2.98584-2.3825,0-3.58766-1.65576-4.55574-2.98584C16.95892,2.82227,16.29417,2,14.9939,2s-1.965.82227-2.94142,2.16406C11.08436,5.49414,9.8792,7.1499,7.4972,7.1499c-2.3825,0-3.58766-1.65576-4.55574-2.98584C1.965,2.82227,1.30026,2,0,2V0C2.3825,0,3.58765,1.65576,4.55573,2.98584,5.53218,4.32764,6.19694,5.1499,7.4972,5.1499c1.29976,0,1.96453-.82226,2.94094-2.16357C11.40625,1.65576,12.61143,0,14.9939,0s3.58766,1.65576,4.55574,2.98584c.9764,1.3418,1.64116,2.16406,2.94142,2.16406,1.30075,0,1.9655-.82226,2.9424-2.16406C26.40211,1.65576,27.60775,0,29.99024,0c2.383,0,3.58863,1.65527,4.55774,2.98584.97739,1.3418,1.6421,2.16406,2.94386,2.16406,1.30074,0,1.9655-.82226,2.9424-2.16406C41.40283,1.65576,42.608,0,44.991,0c2.38348,0,3.58961,1.65527,4.55919,2.98535.97736,1.34229,1.64265,2.16455,2.94529,2.16455,1.30221,0,1.96746-.82226,2.94484-2.16406C56.40991,1.65576,57.616,0,60,0V2c-1.30269,0-1.96794.82227-2.94533,2.16455C56.08508,5.49463,54.879,7.1499,52.49548,7.1499Z" style="fill:#ff574a"/><path d="M112.49548,7.1499c-2.384,0-3.59009-1.65527-4.55967-2.98584C106.95843,2.82227,106.29318,2,104.991,2c-1.30074,0-1.96549.82227-2.9424,2.16406C101.08,5.49414,99.87485,7.1499,97.49187,7.1499c-2.38348,0-3.58912-1.65576-4.55821-2.98584C91.95672,2.82227,91.29148,2,89.99024,2c-1.30074,0-1.9655.82227-2.9424,2.16406-.9686,1.33008-2.17376,2.98584-4.55673,2.98584-2.3825,0-3.58766-1.65576-4.55574-2.98584C76.95892,2.82227,76.29417,2,74.9939,2s-1.965.82227-2.94142,2.16406C71.08436,5.49414,69.8792,7.1499,67.4972,7.1499c-2.3825,0-3.58766-1.65576-4.55574-2.98584C61.965,2.82227,61.30026,2,60,2V0c2.3825,0,3.58765,1.65576,4.55573,2.98584.97645,1.3418,1.64121,2.16406,2.94147,2.16406,1.29976,0,1.96453-.82226,2.94094-2.16357C71.40625,1.65576,72.61143,0,74.9939,0s3.58766,1.65576,4.55574,2.98584c.9764,1.3418,1.64116,2.16406,2.94142,2.16406,1.30075,0,1.9655-.82226,2.9424-2.16406C86.40211,1.65576,87.60775,0,89.99024,0c2.383,0,3.58863,1.65527,4.55774,2.98584.97739,1.3418,1.6421,2.16406,2.94386,2.16406,1.30074,0,1.9655-.82226,2.9424-2.16406C101.40283,1.65576,102.608,0,104.991,0c2.38348,0,3.58961,1.65527,4.55919,2.98535.97736,1.34229,1.64265,2.16455,2.94529,2.16455,1.30221,0,1.96746-.82226,2.94484-2.16406C116.40991,1.65576,117.616,0,120,0V2c-1.30269,0-1.96794.82227-2.94533,2.16455C116.08508,5.49463,114.879,7.1499,112.49548,7.1499Z" style="fill:#ff574a"/></svg>