<svg xmlns="http://www.w3.org/2000/svg" xmlns:xlink="http://www.w3.org/1999/xlink" viewBox="0 0 179 205"><defs><linearGradient id="a" x1="103.77993" y1="105.05226" x2="169.92792" y2="105.05226" gradientUnits="userSpaceOnUse"><stop offset="0" stop-color="#ff574a" stop-opacity="0"/><stop offset="1" stop-color="#ff574a" stop-opacity="0.5"/></linearGradient></defs><title>services-media</title><polygon points="103.743 203.994 103.743 50.589 1.077 50.589 1.077 203.994 1.077 203.994 103.743 203.994" style="fill:none;stroke:#4d328c;stroke-miterlimit:10;stroke-width:2px"/><polygon points="67.294 203.994 67.294 105.052 1.077 105.052 1.077 203.994 1.077 203.994 67.294 203.994" style="fill:none;stroke:#4d328c;stroke-miterlimit:10;stroke-width:2px"/><polygon points="136.854 203.994 136.854 1 1 1 1 203.994 1 203.994 136.854 203.994" style="fill:none;stroke:#4d328c;stroke-miterlimit:10;stroke-width:2px"/><circle cx="136.85392" cy="105.05225" r="41.1672" style="fill:#a231ef"/><circle cx="136.85393" cy="105.05226" r="33.07398" style="fill:url(#a)"/><path d="M160.24077,128.43908a33.074,33.074,0,1,0-46.77369,0" style="fill:none;stroke:#ffdb7d;stroke-miterlimit:10;stroke-width:2px"/><rect x="122.46509" y="124.0567" width="28.43414" height="6.47015" rx="3.23507" style="fill:#032834"/></svg>