<?xml version="1.0" encoding="utf-8"?>
<!-- Generator: Adobe Illustrator 23.0.4, SVG Export Plug-In . SVG Version: 6.00 Build 0)  -->
<svg version="1.1" id="Layer_1" xmlns="http://www.w3.org/2000/svg" xmlns:xlink="http://www.w3.org/1999/xlink" x="0px" y="0px"
	 viewBox="0 0 94 204" style="enable-background:new 0 0 94 204;" xml:space="preserve">
<style type="text/css">
	.st0{fill:none;stroke:#A231EF;stroke-width:1.9982;stroke-miterlimit:10;}
	.st1{fill:#A231EF;}
	.st2{fill:url(#SVGID_1_);}
	.st3{fill:url(#SVGID_2_);}
	.st4{fill:url(#SVGID_3_);}
	.st5{fill:url(#SVGID_4_);}
	.st6{fill:url(#SVGID_5_);}
	.st7{fill:url(#SVGID_6_);}
</style>
<title>services-growth-top</title>
<path class="st0" d="M47,152.4c0,9.3-7.4,16.8-16.6,17H4.7"/>
<path class="st0" d="M85.5,203H63.7c-9.2-0.2-16.6-7.7-16.6-17v-33.6"/>
<path class="st1" d="M94,52.2c0,0-38.3,6.7-47,47.1v0C47,99.3,85.3,92.6,94,52.2L94,52.2z"/>
<path class="st1" d="M0,52.2L0,52.2c8.7,40.4,47,47.1,47,47.1l0,0C38.3,58.9,0,52.2,0,52.2z"/>
<path class="st1" d="M94,94.4c0,0-38.3,6.7-47,47.1v0C47,141.5,85.3,134.8,94,94.4L94,94.4z"/>
<path class="st1" d="M0,94.4L0,94.4c8.7,40.4,47,47.1,47,47.1l0,0C38.3,101.1,0,94.4,0,94.4z"/>
<path class="st1" d="M94,10c0,0-38.3,6.7-47,47.1v0C47,57.1,85.3,50.4,94,10L94,10z"/>
<path class="st1" d="M0,10L0,10c8.7,40.4,47,47.1,47,47.1l0,0C38.3,16.7,0,10,0,10z"/>
<linearGradient id="SVGID_1_" gradientUnits="userSpaceOnUse" x1="47.0001" y1="130.2489" x2="94" y2="130.2489" gradientTransform="matrix(1 0 0 -1 0 206)">
	<stop  offset="0" style="stop-color:#FF574A;stop-opacity:0"/>
	<stop  offset="1" style="stop-color:#FF574A;stop-opacity:0.5"/>
</linearGradient>
<path class="st2" d="M94,52.2c0,0-38.3,6.7-47,47.1v0C47,99.3,85.3,92.6,94,52.2L94,52.2z"/>
<linearGradient id="SVGID_2_" gradientUnits="userSpaceOnUse" x1="0" y1="130.2489" x2="47.0001" y2="130.2489" gradientTransform="matrix(1 0 0 -1 0 206)">
	<stop  offset="0" style="stop-color:#FF574A;stop-opacity:0"/>
	<stop  offset="1" style="stop-color:#FF574A;stop-opacity:0.5"/>
</linearGradient>
<path class="st3" d="M0,52.2L0,52.2c8.7,40.4,47,47.1,47,47.1l0,0C38.3,58.9,0,52.2,0,52.2z"/>
<linearGradient id="SVGID_3_" gradientUnits="userSpaceOnUse" x1="47.0001" y1="88.0683" x2="94" y2="88.0683" gradientTransform="matrix(1 0 0 -1 0 206)">
	<stop  offset="0" style="stop-color:#FF574A;stop-opacity:0"/>
	<stop  offset="1" style="stop-color:#FF574A;stop-opacity:0.5"/>
</linearGradient>
<path class="st4" d="M94,94.4c0,0-38.3,6.7-47,47.1v0C47,141.5,85.3,134.8,94,94.4L94,94.4z"/>
<linearGradient id="SVGID_4_" gradientUnits="userSpaceOnUse" x1="0" y1="88.0683" x2="47.0001" y2="88.0683" gradientTransform="matrix(1 0 0 -1 0 206)">
	<stop  offset="0" style="stop-color:#FF574A;stop-opacity:0"/>
	<stop  offset="1" style="stop-color:#FF574A;stop-opacity:0.5"/>
</linearGradient>
<path class="st5" d="M0,94.4L0,94.4c8.7,40.4,47,47.1,47,47.1l0,0C38.3,101.1,0,94.4,0,94.4z"/>
<linearGradient id="SVGID_5_" gradientUnits="userSpaceOnUse" x1="47.0001" y1="172.4296" x2="94" y2="172.4296" gradientTransform="matrix(1 0 0 -1 0 206)">
	<stop  offset="0" style="stop-color:#FF574A;stop-opacity:0"/>
	<stop  offset="1" style="stop-color:#FF574A;stop-opacity:0.5"/>
</linearGradient>
<path class="st6" d="M94,10c0,0-38.3,6.7-47,47.1v0C47,57.1,85.3,50.4,94,10L94,10z"/>
<linearGradient id="SVGID_6_" gradientUnits="userSpaceOnUse" x1="0" y1="172.4296" x2="47.0001" y2="172.4296" gradientTransform="matrix(1 0 0 -1 0 206)">
	<stop  offset="0" style="stop-color:#FF574A;stop-opacity:0"/>
	<stop  offset="1" style="stop-color:#FF574A;stop-opacity:0.5"/>
</linearGradient>
<path class="st7" d="M0,10L0,10c8.7,40.4,47,47.1,47,47.1l0,0C38.3,16.7,0,10,0,10z"/>
<line class="st0" x1="47.2" y1="0" x2="47.2" y2="203"/>
</svg>
