<svg xmlns="http://www.w3.org/2000/svg" xmlns:xlink="http://www.w3.org/1999/xlink" viewBox="0 0 415 350"><defs><linearGradient id="a" x1="96.80514" y1="319.37361" x2="96.80514" y2="151.1954" gradientUnits="userSpaceOnUse"><stop offset="0" stop-color="#ff574a" stop-opacity="0.5"/><stop offset="0.01132" stop-color="#ff574a" stop-opacity="0.4905"/><stop offset="0.2385" stop-color="#ff574a" stop-opacity="0.31592"/><stop offset="0.45714" stop-color="#ff574a" stop-opacity="0.17861"/><stop offset="0.66239" stop-color="#ff574a" stop-opacity="0.08023"/><stop offset="0.84896" stop-color="#ff574a" stop-opacity="0.02068"/><stop offset="1" stop-color="#ff574a" stop-opacity="0"/></linearGradient><linearGradient id="b" x1="147.25571" y1="319.37361" x2="147.25571" y2="151.1954" xlink:href="#a"/></defs><title>approach-image5</title><rect x="33.3591" width="378.88109" height="326.0363" style="fill:#a231ef"/><rect y="338.45703" width="378.99269" height="11.23053" style="fill:#2f3336"/><polygon points="412.24 330.595 378.993 349.688 378.993 338.457 412.24 319.364 412.24 330.595" style="fill:#a231ef"/><polygon points="33.359 319.364 412.24 319.364 378.993 338.457 0 338.457 33.359 319.364" style="fill:#ffc0d8"/><rect x="84.07351" y="151.1954" width="25.46326" height="168.17821" style="opacity:0.61;fill:url(#a)"/><rect x="134.52408" y="151.1954" width="25.46326" height="168.17821" style="opacity:0.61;fill:url(#b)"/><rect x="53.9197" y="108.19049" width="116.13157" height="218.68076" style="fill:#2f3336"/><polygon points="181.972 320.005 170.051 326.871 170.051 108.19 181.972 101.324 181.972 320.005" style="fill:#ffdb7d"/><polygon points="174.051 113.703 177.972 111.445 177.972 315.362 174.051 317.62 174.051 113.703" style="fill:#2f3336"/><polygon points="65.849 101.324 181.972 101.324 170.051 108.19 53.928 108.19 65.849 101.324" style="fill:#ffc0d8"/><path d="M316.51728,0l.00017,154.52392a16.94306,16.94306,0,0,1-16.6068,16.98846l-123.89888-.00014" style="fill:none;stroke:#2f3336;stroke-miterlimit:10;stroke-width:2px"/><path d="M412.24019,195.01432l-57.05583-.00021a16.94312,16.94312,0,0,0-16.98852,16.60676l-.00043,123.89863" style="fill:none;stroke:#ffc0d8;stroke-miterlimit:10;stroke-width:2px;opacity:0.2"/><path d="M240.27924,319.3641l.00022-260.64839A16.9431,16.9431,0,0,0,223.6727,41.7272L33.11653,41.72689" style="fill:none;stroke:#ffc0d8;stroke-miterlimit:10;stroke-width:2px;opacity:0.2"/><line x1="176.01192" y1="251.11773" x2="412.24019" y2="251.11773" style="fill:none;stroke:#2f3336;stroke-miterlimit:10;stroke-width:2px"/></svg>