<svg xmlns="http://www.w3.org/2000/svg" xmlns:xlink="http://www.w3.org/1999/xlink" viewBox="0 0 415 350"><defs><clipPath id="a"><rect x="280.90195" y="68.32092" width="67.72079" height="28.65111" style="fill:none"/></clipPath><linearGradient id="b" x1="320.38927" y1="209.50339" x2="383.31993" y2="209.50339" gradientUnits="userSpaceOnUse"><stop offset="0" stop-color="#ff574a" stop-opacity="0.5"/><stop offset="0.01132" stop-color="#ff574a" stop-opacity="0.4905"/><stop offset="0.2385" stop-color="#ff574a" stop-opacity="0.31592"/><stop offset="0.45714" stop-color="#ff574a" stop-opacity="0.17861"/><stop offset="0.66239" stop-color="#ff574a" stop-opacity="0.08023"/><stop offset="0.84896" stop-color="#ff574a" stop-opacity="0.02068"/><stop offset="1" stop-color="#ff574a" stop-opacity="0"/></linearGradient><linearGradient id="c" x1="-8784.08767" y1="196.72397" x2="-8721.15701" y2="196.72397" gradientTransform="matrix(-1, 0, 0, 1, -8400.76774, 0)" gradientUnits="userSpaceOnUse"><stop offset="0" stop-color="#ff574a" stop-opacity="0.5"/><stop offset="0.00613" stop-color="#ff574a" stop-opacity="0.4905"/><stop offset="0.12919" stop-color="#ff574a" stop-opacity="0.31592"/><stop offset="0.24762" stop-color="#ff574a" stop-opacity="0.17861"/><stop offset="0.35879" stop-color="#ff574a" stop-opacity="0.08023"/><stop offset="0.45986" stop-color="#ff574a" stop-opacity="0.02068"/><stop offset="0.54167" stop-color="#ff574a" stop-opacity="0"/></linearGradient><linearGradient id="d" x1="-8784.08767" y1="151.24387" x2="-8721.15701" y2="151.24387" xlink:href="#c"/></defs><title>approach-image4</title><rect x="33.3591" width="378.88109" height="326.0363" style="fill:#2f3336"/><g style="clip-path:url(#a)"><path d="M330.416,91.74707c-2.75879,0-4.126-1.87451-5.22461-3.38086-1.03809-1.42334-1.6875-2.22851-2.959-2.22851-1.26953,0-1.918.80517-2.95605,2.22851-1.09766,1.50635-2.46387,3.38086-5.22168,3.38086s-4.125-1.87451-5.22266-3.38037c-1.03808-1.42383-1.6875-2.229-2.958-2.229-1.26953,0-1.918.80517-2.956,2.22851-1.09766,1.50635-2.46387,3.38086-5.22168,3.38086-2.75684,0-4.123-1.875-5.2207-3.38135-1.03711-1.42285-1.68653-2.228-2.95508-2.228s-1.918.80517-2.95508,2.22851c-1.09668,1.50635-2.46289,3.38086-5.21973,3.38086s-4.123-1.875-5.2207-3.38135c-1.03711-1.42285-1.68652-2.228-2.95508-2.228V83.333c2.75684,0,4.12305,1.875,5.2207,3.38135,1.03711,1.42285,1.68653,2.228,2.95508,2.228s1.917-.80517,2.95313-2.228c1.09863-1.50635,2.46387-3.38135,5.22168-3.38135,2.75683,0,4.123,1.875,5.2207,3.38135,1.03711,1.42285,1.68652,2.228,2.95508,2.228,1.26953,0,1.918-.80517,2.95605-2.22851C301.75,85.20752,303.11621,83.333,305.874,83.333c2.75879,0,4.126,1.87451,5.22364,3.38086,1.03808,1.42334,1.6875,2.22851,2.957,2.22851s1.918-.80517,2.95605-2.22851c1.09766-1.50635,2.46387-3.38086,5.22168-3.38086,2.75879,0,4.126,1.87451,5.22461,3.38086,1.03809,1.42334,1.6875,2.22851,2.959,2.22851s1.92089-.80517,2.959-2.22851c1.09863-1.50635,2.46582-3.38086,5.22461-3.38086V86.1377c-1.27149,0-1.9209.80517-2.959,2.22851C334.542,89.87256,333.1748,91.74707,330.416,91.74707Z" style="fill:#a231ef;opacity:0.30000000000000004"/></g><rect y="338.45703" width="378.99269" height="11.23053" style="fill:#2f3336"/><polygon points="412.24 330.595 378.993 349.688 378.993 338.457 412.24 319.364 412.24 330.595" style="fill:#a231ef"/><polygon points="33.359 319.364 412.24 319.364 378.993 338.457 0 338.457 33.359 319.364" style="fill:#ffc0d8"/><g style="opacity:0.30000000000000004"><path d="M134.65373,110.00661c4.08776,0,4.08776,5.60957,8.17551,5.60957s4.08775-5.60957,8.1755-5.60957,4.08782,5.60957,8.17565,5.60957c4.08887,0,4.08887-5.60957,8.17775-5.60957,4.0903,0,4.0903,5.60957,8.1806,5.60957,4.089,0,4.089-5.60957,8.178-5.60957,4.09181,0,4.09181,5.60957,8.18362,5.60957s4.09182-5.60957,8.18363-5.60957" style="fill:none;stroke:#a231ef;stroke-miterlimit:10;stroke-width:2.80454301929474px"/></g><path d="M317.01074,190.0332c-1.03808,1.42383-1.68652,2.22852-2.95605,2.22852s-1.91895-.80469-2.957-2.22852c-1.09766-1.50586-2.46485-3.38086-5.22364-3.38086-2.75781,0-4.124,1.875-5.22168,3.38086-1.03808,1.42383-1.68652,2.22852-2.95605,2.22852-1.26856,0-1.918-.80469-2.95508-2.22852-1.09766-1.50586-2.46387-3.38086-5.2207-3.38086-2.75781,0-4.123,1.875-5.22168,3.38184-1.03613,1.42285-1.68457,2.22754-2.95313,2.22754s-1.918-.80469-2.95508-2.22852c-1.09765-1.50586-2.46386-3.38086-5.2207-3.38086V189.457c1.26856,0,1.918.80469,2.95508,2.22852,1.09766,1.50586,2.46387,3.38086,5.2207,3.38086s4.123-1.875,5.21973-3.38086c1.03711-1.42383,1.68652-2.22852,2.95508-2.22852s1.918.80469,2.95508,2.22852c1.09765,1.50586,2.46386,3.38086,5.2207,3.38086,2.75781,0,4.124-1.875,5.22168-3.38086,1.03808-1.42383,1.68652-2.22852,2.956-2.22852,1.27051,0,1.91993.80567,2.958,2.22852,1.09766,1.50683,2.46485,3.38086,5.22266,3.38086s4.124-1.875,5.22168-3.38086c.7959-1.09168,1.365-1.81519,2.15838-2.09534-.23059-.89966-.41961-1.81616-.57537-2.74469A7.273,7.273,0,0,0,317.01074,190.0332Z" style="fill:#a231ef;opacity:0.30000000000000004"/><path d="M351.85474,213.71564a30.83868,30.83868,0,0,0,21.15643-8.4245,30.83925,30.83925,0,0,1-21.15656,8.4245Z" style="fill:url(#b)"/><path d="M324.94464,198.10211q-.78844-1.33722-1.45251-2.75628Q324.155,196.76362,324.94464,198.10211Z" style="fill:url(#c)"/><path d="M341.82593,150.54962V126.44916h-.00025v24.10046a32.21092,32.21092,0,0,0-21.0263,25.48895A32.21118,32.21118,0,0,1,341.82593,150.54962Z" style="fill:url(#d)"/><g style="opacity:0.30000000000000004"><path d="M78.85215,192.48845c4.08775,0,4.08775,5.60957,8.17551,5.60957s4.08775-5.60957,8.1755-5.60957S99.291,198.098,103.3788,198.098c4.08888,0,4.08888-5.60957,8.17775-5.60957,4.0903,0,4.0903,5.60957,8.1806,5.60957,4.089,0,4.089-5.60957,8.178-5.60957,4.09181,0,4.09181,5.60957,8.18362,5.60957s4.09181-5.60957,8.18362-5.60957" style="fill:none;stroke:#a231ef;stroke-miterlimit:10;stroke-width:2.80454301929474px"/></g><g style="opacity:0.30000000000000004"><path d="M78.838,110.00661c4.08776,0,4.08776,5.60957,8.17551,5.60957s4.08775-5.60957,8.1755-5.60957,4.08782,5.60957,8.17565,5.60957c4.08887,0,4.08887-5.60957,8.17775-5.60957,4.0903,0,4.0903,5.60957,8.1806,5.60957,4.089,0,4.089-5.60957,8.178-5.60957,4.09181,0,4.09181,5.60957,8.18362,5.60957s4.09182-5.60957,8.18363-5.60957" style="fill:none;stroke:#a231ef;stroke-miterlimit:10;stroke-width:2.80454301929474px"/></g><g style="opacity:0.30000000000000004"><path d="M134.65373,192.48845c4.08776,0,4.08776,5.60957,8.17551,5.60957s4.08775-5.60957,8.1755-5.60957,4.08782,5.60957,8.17565,5.60957c4.08887,0,4.08887-5.60957,8.17775-5.60957,4.0903,0,4.0903,5.60957,8.1806,5.60957,4.089,0,4.089-5.60957,8.178-5.60957,4.09181,0,4.09181,5.60957,8.18362,5.60957s4.09182-5.60957,8.18363-5.60957" style="fill:none;stroke:#a231ef;stroke-miterlimit:10;stroke-width:2.80454301929474px"/></g><rect x="242.64202" y="177.35116" width="48.76492" height="30.15304" style="fill:#ef5350"/><polygon points="296.853 204.368 291.407 207.504 291.407 177.351 296.853 174.215 296.853 204.368" style="fill:#ffdb7d"/><polygon points="248.088 174.215 296.853 174.215 291.407 177.351 242.642 177.351 248.088 174.215" style="fill:#ffc0d8"/><rect x="326.93845" y="74.60708" width="48.76492" height="30.15304" style="fill:#ef5350"/><polygon points="381.149 101.624 375.703 104.76 375.703 74.607 381.149 71.471 381.149 101.624" style="fill:#ffdb7d"/><polygon points="332.384 71.471 381.149 71.471 375.703 74.607 326.938 74.607 332.384 71.471" style="fill:#ffc0d8"/></svg>