<svg xmlns="http://www.w3.org/2000/svg" viewBox="0 0 415 350"><title>approach-image3</title><rect x="33.3591" width="378.88109" height="326.0363" style="fill:#ffdb7d"/><rect y="338.45703" width="378.99269" height="11.23053" style="fill:#2f3336"/><polygon points="412.24 330.595 378.993 349.688 378.993 338.457 412.24 319.364 412.24 330.595" style="fill:#a231ef"/><polygon points="33.359 319.364 412.24 319.364 378.993 338.457 0 338.457 33.359 319.364" style="fill:#ffc0d8"/><rect x="57.59007" y="294.02161" width="97.05726" height="41.60902" style="fill:#2f3336"/><polygon points="184.158 319.356 154.647 335.631 154.647 294.022 184.158 277.747 184.158 319.356" style="fill:#a231ef"/><polygon points="87.1 277.747 184.158 277.747 154.647 294.022 57.59 294.022 87.1 277.747" style="fill:#ffc0d8"/><rect x="164.02171" y="299.44195" width="19.86112" height="18.13754" style="fill:#2f3336"/><polygon points="192.541 312.695 183.883 317.579 183.883 299.442 192.541 294.557 192.541 312.695" style="fill:#a231ef"/><polygon points="172.679 294.557 192.541 294.557 183.883 299.442 164.022 299.442 172.679 294.557" style="fill:#ffc0d8"/><path d="M106.1187,278.95868h0a7.85648,7.85648,0,0,1,7.85648,7.85648v58.366a7.85641,7.85641,0,0,1-7.85641,7.85641h0A7.85658,7.85658,0,0,1,98.2622,345.181V286.81518A7.8565,7.8565,0,0,1,106.1187,278.95868Z" transform="translate(422.11221 209.86573) rotate(89.99752)" style="fill:#a231ef"/><path d="M76.93531,319.00858a3.0114,3.0114,0,1,1,.00079-6.02279l58.36545.00157a3.0114,3.0114,0,1,1,0,6.0228h0Z" style="fill:#2f3336"/><path d="M188.21166,304.95227l87.02585.00008c14.82223.00023,27.39655-10.3795,27.43393-25.20205V252.69053" style="fill:none;stroke:#ffb17d;stroke-miterlimit:10;stroke-width:2.18792009353638px"/><path d="M251.04755,304.95235c14.82223.00023,27.39656-10.3795,27.43393-25.20205V252.69053" style="fill:none;stroke:#ffb17d;stroke-miterlimit:10;stroke-width:2.18792009353638px"/><path d="M223.14974,304.95227l75.37982.00008c14.82223.00023,27.39655-10.3795,27.43393-25.20205V252.69053" style="fill:none;stroke:#ffb17d;stroke-miterlimit:10;stroke-width:2.18792009353638px"/></svg>