<svg xmlns="http://www.w3.org/2000/svg" viewBox="0 0 415 350"><title>approach-image1</title><rect x="33.3591" width="378.88109" height="326.0363" style="fill:#ef5350"/><rect y="338.45703" width="378.99269" height="11.23053" style="fill:#2f3336"/><polygon points="412.24 330.595 378.993 349.688 378.993 338.457 412.24 319.364 412.24 330.595" style="fill:#a231ef"/><polygon points="33.359 319.364 412.24 319.364 378.993 338.457 0 338.457 33.359 319.364" style="fill:#ffc0d8"/><rect x="46.06223" y="273.7448" width="60.10071" height="60.10071" style="fill:#2f3336"/><polygon points="131.151 319.518 106.163 333.846 106.163 273.745 131.151 259.417 131.151 319.518" style="fill:#ffdb7d"/><polygon points="71.05 259.417 131.151 259.417 106.163 273.745 46.062 273.745 71.05 259.417" style="fill:#ffc0d8"/><rect x="124.45596" y="273.7448" width="60.10071" height="60.10071" style="fill:#2f3336"/><polygon points="209.545 319.518 184.557 333.846 184.557 273.745 209.545 259.417 209.545 319.518" style="fill:#ffdb7d"/><polygon points="149.444 259.417 209.545 259.417 184.557 273.745 124.456 273.745 149.444 259.417" style="fill:#ffc0d8"/><rect x="85.53488" y="213.64409" width="60.10071" height="60.10071" style="fill:#2f3336"/><polygon points="170.624 259.417 145.636 273.745 145.636 213.644 170.624 199.316 170.624 259.417" style="fill:#ffdb7d"/><polygon points="110.523 199.316 170.624 199.316 145.636 213.644 85.535 213.644 110.523 199.316" style="fill:#ffc0d8"/><rect x="92.25715" y="239.00735" width="46.65616" height="28.23929" style="fill:#ffc0d8"/><polygon points="92.257 267.247 106.78 255.174 112.399 257.473 127.452 244.729 130.987 246.933 138.913 239.007 138.913 267.247 92.257 267.247" style="fill:#a231ef"/><rect x="259.62194" y="273.7448" width="60.10071" height="60.10071" style="fill:#2f3336"/><polygon points="344.711 319.518 319.723 333.846 319.723 273.745 344.711 259.417 344.711 319.518" style="fill:#ffdb7d"/><polygon points="284.61 259.417 344.711 259.417 319.723 273.745 259.622 273.745 284.61 259.417" style="fill:#ffc0d8"/><rect x="259.62194" y="273.7448" width="60.10071" height="60.10071" style="fill:none"/><rect x="56.35582" y="153.54338" width="60.10071" height="60.10071" style="fill:#2f3336"/><polygon points="141.445 199.316 116.457 213.644 116.457 153.543 141.445 139.216 141.445 199.316" style="fill:#ffdb7d"/><polygon points="81.344 139.216 141.445 139.216 116.457 153.543 56.356 153.543 81.344 139.216" style="fill:#ffc0d8"/><rect x="81.9115" y="93.59632" width="60.10071" height="60.10071" style="fill:#2f3336"/><polygon points="167 139.369 142.012 153.697 142.012 93.596 167 79.269 167 139.369" style="fill:#ffdb7d"/><polygon points="106.9 79.269 167 79.269 142.012 93.596 81.911 93.596 106.9 79.269" style="fill:#ffc0d8"/></svg>