<?xml version="1.0" encoding="utf-8"?>
<!-- Generator: Adobe Illustrator 23.0.4, SVG Export Plug-In . SVG Version: 6.00 Build 0)  -->
<svg version="1.1" id="Layer_1" xmlns="http://www.w3.org/2000/svg" xmlns:xlink="http://www.w3.org/1999/xlink" x="0px" y="0px"
	 viewBox="0 0 61 61" style="enable-background:new 0 0 61 61;" xml:space="preserve">
<style type="text/css">
	.st0{filter:url(#Adobe_OpacityMaskFilter);}
	.st1{fill-rule:evenodd;clip-rule:evenodd;fill:#FFFFFF;}
	.st2{mask:url(#mask-2_1_);fill-rule:evenodd;clip-rule:evenodd;fill:#A231EF;}
	.st3{fill-rule:evenodd;clip-rule:evenodd;fill:#032834;}
	.st4{fill-rule:evenodd;clip-rule:evenodd;fill:#A231EF;}
</style>
<title>Group 10</title>
<desc>Created with Sketch.</desc>
<g id="Group-4" transform="translate(701.000000, 704.000000)">
	<g id="Group-10">
		<g id="Group-3" transform="translate(0.000000, 0.834000)">
			<g id="Clip-2">
			</g>
			<defs>
				<filter id="Adobe_OpacityMaskFilter" filterUnits="userSpaceOnUse" x="-701" y="-704.8" width="60.8" height="60.8">
					<feColorMatrix  type="matrix" values="1 0 0 0 0  0 1 0 0 0  0 0 1 0 0  0 0 0 1 0"/>
				</filter>
			</defs>
			<mask maskUnits="userSpaceOnUse" x="-701" y="-704.8" width="60.8" height="60.8" id="mask-2_1_">
				<g class="st0">
					<polygon id="path-1_1_" class="st1" points="-701,-704.8 -640.2,-704.8 -640.2,-644 -701,-644 					"/>
				</g>
			</mask>
			<path id="Fill-1" class="st2" d="M-640.2-674.4c0-16.8-13.6-30.4-30.4-30.4s-30.4,13.6-30.4,30.4c0,16.8,13.6,30.4,30.4,30.4
				S-640.2-657.6-640.2-674.4"/>
		</g>
		<path id="Fill-4" class="st3" d="M-647.5-673.6c0-12.7-10.3-23-23-23c-12.7,0-23,10.3-23,23c0,12.7,10.3,23,23,23
			C-657.9-650.5-647.5-660.9-647.5-673.6"/>
		<path id="Fill-6" class="st4" d="M-654.9-673.6c0-8.7-7-15.7-15.7-15.7c-8.7,0-15.7,7-15.7,15.7c0,8.7,7,15.7,15.7,15.7
			C-661.9-657.9-654.9-664.9-654.9-673.6"/>
		<path id="Fill-8" class="st3" d="M-662.6-673.6c0-4.4-3.6-7.9-7.9-7.9c-4.4,0-7.9,3.6-7.9,7.9c0,4.4,3.6,7.9,7.9,7.9
			C-666.2-665.6-662.6-669.2-662.6-673.6"/>
	</g>
</g>
</svg>
