<?xml version="1.0" encoding="UTF-8"?>
<svg width="168px" height="65px" viewBox="0 0 168 65" version="1.1" xmlns="http://www.w3.org/2000/svg" xmlns:xlink="http://www.w3.org/1999/xlink">
    <!-- Generator: Sketch 53.2 (72643) - https://sketchapp.com -->
    <title>Group 27</title>
    <desc>Created with Sketch.</desc>
    <g id="Design" stroke="none" stroke-width="1" fill="none" fill-rule="evenodd">
        <g id="Home" transform="translate(-815.000000, -11985.000000)" fill="#FFFFFF">
            <g id="Footer" transform="translate(68.000000, 10831.000000)">
                <g id="Group-16" transform="translate(416.000000, 996.000000)">
                    <g id="Group-27" transform="translate(331.000000, 158.932937)">
                        <path d="M2.013269,28 L2.013269,17.995 L8.868269,17.995 L8.868269,19.54 L3.768269,19.54 L3.768269,22.135 L8.763269,22.135 L8.763269,23.68 L3.768269,23.68 L3.768269,26.455 L8.868269,26.455 L8.868269,28 L2.013269,28 Z M15.7925,26.59 L16.7675,25.24 C17.4575,25.975 18.5375,26.62 19.9325,26.62 C21.3725,26.62 21.9425,25.915 21.9425,25.255 C21.9425,24.355 20.8775,24.085 19.6625,23.77 C18.0275,23.365 16.1075,22.885 16.1075,20.77 C16.1075,19.12 17.5625,17.845 19.7525,17.845 C21.3125,17.845 22.5725,18.34 23.5025,19.24 L22.4975,20.545 C21.7175,19.765 20.6525,19.405 19.6025,19.405 C18.5675,19.405 17.9075,19.9 17.9075,20.65 C17.9075,21.43 18.9275,21.685 20.1125,21.985 C21.7625,22.405 23.7275,22.915 23.7275,25.09 C23.7275,26.755 22.5575,28.18 19.8575,28.18 C18.0125,28.18 16.6775,27.535 15.7925,26.59 Z M3.528269,48 L3.528269,39.54 L0.498269,39.54 L0.498269,37.995 L8.313269,37.995 L8.313269,39.54 L5.283269,39.54 L5.283269,48 L3.528269,48 Z M15.5675,48 L15.5675,37.995 L19.2875,37.995 C22.4075,37.995 24.5225,40.065 24.5225,43.005 C24.5225,45.945 22.4075,48 19.2875,48 L15.5675,48 Z M17.3225,46.455 L19.2875,46.455 C21.4625,46.455 22.7225,44.895 22.7225,43.005 C22.7225,41.07 21.5225,39.54 19.2875,39.54 L17.3225,39.54 L17.3225,46.455 Z" id="ESTD" fill-rule="nonzero" opacity="0.4" transform="translate(12.510385, 32.922500) rotate(-360.000000) translate(-12.510385, -32.922500) "></path>
                        <path d="M145.398269,28 L145.398269,26.62 C149.283269,23.68 150.798269,22.375 150.798269,20.935 C150.798269,19.885 149.898269,19.405 148.983269,19.405 C147.813269,19.405 146.913269,19.885 146.283269,20.605 L145.263269,19.45 C146.148269,18.385 147.558269,17.845 148.953269,17.845 C150.888269,17.845 152.583269,18.94 152.583269,20.935 C152.583269,22.78 150.888269,24.43 148.203269,26.455 L152.643269,26.455 L152.643269,28 L145.398269,28 Z M159.9575,23.005 C159.9575,20.485 161.1575,17.845 163.9625,17.845 C166.7675,17.845 167.9675,20.485 167.9675,23.005 C167.9675,25.525 166.7675,28.18 163.9625,28.18 C161.1575,28.18 159.9575,25.525 159.9575,23.005 Z M166.1825,23.005 C166.1825,21.1 165.5975,19.405 163.9625,19.405 C162.3275,19.405 161.7425,21.1 161.7425,23.005 C161.7425,24.91 162.3275,26.62 163.9625,26.62 C165.5975,26.62 166.1825,24.91 166.1825,23.005 Z M149.410769,48 L149.410769,40.275 L147.775769,41.97 L146.755769,40.905 L149.635769,37.995 L151.165769,37.995 L151.165769,48 L149.410769,48 Z M163.19,48 L163.19,45.735 L158.42,45.735 L158.42,44.325 L162.53,37.995 L164.945,37.995 L164.945,44.19 L166.28,44.19 L166.28,45.735 L164.945,45.735 L164.945,48 L163.19,48 Z M163.19,39.57 L160.145,44.19 L163.19,44.19 L163.19,39.57 Z" id="2014" fill-rule="nonzero" opacity="0.4" transform="translate(156.615385, 32.922500) rotate(-360.000000) translate(-156.615385, -32.922500) "></path>
                        <g id="Group-6" transform="translate(63.000000, 0.000000)">
                            <polygon id="Fill-1" points="27 0 45 18 45 0"></polygon>
                            <polygon id="Fill-2" points="0 64 18 64 0 46"></polygon>
                            <polygon id="Fill-3" points="0 38 18 38 18 0 0 0"></polygon>
                            <path d="M39,30.5003689 C39,26.9107781 36.0897945,24 32.5,24 C28.9102055,24 26,26.9107781 26,30.5003689 C26,34.0899597 28.9102055,37 32.5,37 C36.0897945,37 39,34.0899597 39,30.5003689" id="Fill-4"></path>
                        </g>
                    </g>
                </g>
            </g>
        </g>
    </g>
</svg>