<svg xmlns="http://www.w3.org/2000/svg" xmlns:xlink="http://www.w3.org/1999/xlink" viewBox="0 0 124.0636 36.3602"><defs><mask id="a" x="-56.39" y="-10.0698" width="180.45399" height="54.954" maskUnits="userSpaceOnUse"><polygon points="-56.39 44.884 124.064 44.884 124.064 -10.07 -56.39 -10.07 -56.39 44.884" style="fill:#fff;fill-rule:evenodd"/></mask></defs><title>logo-text</title><polygon points="0.494 0.181 8.018 0.181 8.018 1.877 2.42 1.877 2.42 4.725 7.903 4.725 7.903 6.421 2.42 6.421 2.42 11.162 0.494 11.162 0.494 0.181" style="fill:#fff;fill-rule:evenodd"/><polygon points="13.039 0.181 14.965 0.181 14.965 9.467 19.806 9.467 19.806 11.162 13.039 11.162 13.039 0.181" style="fill:#fff;fill-rule:evenodd"/><path d="M27.1475,7.3594h4.116l-2.058-5.548Zm4.659,1.696h-5.202l-.807,2.107h-2.108L28.0035.1814h2.404l4.313,10.981h-2.107Z" style="fill:#fff;fill-rule:evenodd"/><polygon points="40.762 1.877 37.436 1.877 37.436 0.181 46.014 0.181 46.014 1.877 42.688 1.877 42.688 11.163 40.762 11.163 40.762 1.877" style="fill:#fff;fill-rule:evenodd"/><polygon points="50.936 11.162 52.862 11.162 52.862 0.181 50.936 0.181 50.936 11.162" style="fill:#fff;fill-rule:evenodd"/><path d="M63.0528,1.877h-2.634v3.49h2.634a1.731,1.731,0,0,0,1.877-1.745,1.731,1.731,0,0,0-1.877-1.745Zm-.724,5.186h-1.91v4.1h-1.927V.181h4.825a3.33358,3.33358,0,0,1,3.589,3.441,3.08023,3.08023,0,0,1-2.602,3.227l2.684,4.314h-2.223Z" style="fill:#fff;fill-rule:evenodd"/><path d="M77.2437,1.712c-2.223,0-3.639,1.696-3.639,3.968a3.65218,3.65218,0,1,0,7.277,0,3.647,3.647,0,0,0-3.638-3.968m0-1.712a5.44843,5.44843,0,0,1,5.614,5.68,5.61487,5.61487,0,1,1-11.229,0A5.44867,5.44867,0,0,1,77.2437,0" style="fill:#fff;fill-rule:evenodd"/><polygon points="89.936 3.161 89.936 11.162 88.01 11.162 88.01 0.181 89.985 0.181 95.6 7.969 95.6 0.181 97.526 0.181 97.526 11.162 95.665 11.162 89.936 3.161" style="fill:#fff;fill-rule:evenodd"/><path d="M0,30.6802a5.51973,5.51973,0,0,1,5.68-5.68,5.00578,5.00578,0,0,1,4.495,2.469l-1.646.84a3.2973,3.2973,0,0,0-2.849-1.597,3.74555,3.74555,0,0,0-3.704,3.968,3.74555,3.74555,0,0,0,3.704,3.968,3.26348,3.26348,0,0,0,2.849-1.597l1.646.839a5.027,5.027,0,0,1-4.495,2.47A5.51973,5.51973,0,0,1,0,30.6802" style="fill:#fff;fill-rule:evenodd"/><path d="M20.1348,26.712c-2.223,0-3.639,1.696-3.639,3.968a3.65218,3.65218,0,1,0,7.277,0,3.647,3.647,0,0,0-3.638-3.968m0-1.712a5.44844,5.44844,0,0,1,5.614,5.68,5.44788,5.44788,0,0,1-5.614,5.68,5.44812,5.44812,0,0,1-5.615-5.68A5.44868,5.44868,0,0,1,20.1348,25" style="fill:#fff;fill-rule:evenodd"/><polygon points="30.901 25.181 32.827 25.181 32.827 34.467 37.668 34.467 37.668 36.162 30.901 36.162 30.901 25.181" style="fill:#fff;fill-rule:evenodd"/><polygon points="42.705 25.181 44.631 25.181 44.631 34.467 49.472 34.467 49.472 36.162 42.705 36.162 42.705 25.181" style="fill:#fff;fill-rule:evenodd"/><polygon points="54.508 25.181 62.032 25.181 62.032 26.877 56.434 26.877 56.434 29.725 61.917 29.725 61.917 31.421 56.434 31.421 56.434 34.467 62.032 34.467 62.032 36.162 54.508 36.162 54.508 25.181" style="fill:#fff;fill-rule:evenodd"/><path d="M66.8057,30.6802a5.51973,5.51973,0,0,1,5.68-5.68,5.00578,5.00578,0,0,1,4.495,2.469l-1.646.84a3.2973,3.2973,0,0,0-2.849-1.597,3.74555,3.74555,0,0,0-3.704,3.968,3.74555,3.74555,0,0,0,3.704,3.968,3.26348,3.26348,0,0,0,2.849-1.597l1.646.839a5.027,5.027,0,0,1-4.495,2.47,5.51973,5.51973,0,0,1-5.68-5.68" style="fill:#fff;fill-rule:evenodd"/><polygon points="84.438 26.877 81.111 26.877 81.111 25.181 89.689 25.181 89.689 26.877 86.363 26.877 86.363 36.163 84.438 36.163 84.438 26.877" style="fill:#fff;fill-rule:evenodd"/><g style="mask:url(#a)"><polygon points="94.611 36.162 96.537 36.162 96.537 25.181 94.611 25.181 94.611 36.162" style="fill:#fff;fill-rule:evenodd"/></g><g style="mask:url(#a)"><polygon points="101.015 25.181 103.204 25.181 106.531 34.072 109.856 25.181 112.046 25.181 107.732 36.162 105.328 36.162 101.015 25.181" style="fill:#fff;fill-rule:evenodd"/></g><g style="mask:url(#a)"><polygon points="116.54 25.181 124.064 25.181 124.064 26.877 118.466 26.877 118.466 29.725 123.949 29.725 123.949 31.421 118.466 31.421 118.466 34.467 124.064 34.467 124.064 36.162 116.54 36.162 116.54 25.181" style="fill:#fff;fill-rule:evenodd"/></g></svg>