<?xml version="1.0" encoding="UTF-8"?>
<svg width="181px" height="55px" viewBox="0 0 181 55" version="1.1" xmlns="http://www.w3.org/2000/svg" xmlns:xlink="http://www.w3.org/1999/xlink">
    <!-- Generator: Sketch 53.2 (72643) - https://sketchapp.com -->
    <title>Logo</title>
    <desc>Created with Sketch.</desc>
    <defs>
        <polygon id="path-1" points="0 55 180.454 55 180.454 0.046 0 0.046"></polygon>
    </defs>
    <g id="Design" stroke="none" stroke-width="1" fill="none" fill-rule="evenodd">
        <g id="Home" transform="translate(-38.000000, -38.000000)">
            <g id="Nav" transform="translate(38.000000, 37.000000)">
                <g id="Logo">
                    <polygon id="Fill-1" fill="#FFFFFF" points="56.8842 11.2512 64.4082 11.2512 64.4082 12.9472 58.8102 12.9472 58.8102 15.7952 64.2932 15.7952 64.2932 17.4912 58.8102 17.4912 58.8102 22.2322 56.8842 22.2322"></polygon>
                    <polygon id="Fill-2" fill="#FFFFFF" points="69.4286 11.2512 71.3546 11.2512 71.3546 20.5372 76.1956 20.5372 76.1956 22.2322 69.4286 22.2322"></polygon>
                    <path d="M83.5375,18.4294 L87.6535,18.4294 L85.5955,12.8814 L83.5375,18.4294 Z M88.1965,20.1254 L82.9945,20.1254 L82.1875,22.2324 L80.0795,22.2324 L84.3935,11.2514 L86.7975,11.2514 L91.1105,22.2324 L89.0035,22.2324 L88.1965,20.1254 Z" id="Fill-3" fill="#FFFFFF"></path>
                    <polygon id="Fill-4" fill="#FFFFFF" points="97.1523 12.947 93.8263 12.947 93.8263 11.251 102.4043 11.251 102.4043 12.947 99.0783 12.947 99.0783 22.233 97.1523 22.233"></polygon>
                    <polygon id="Fill-5" fill="#FFFFFF" points="107.326 22.2322 109.252 22.2322 109.252 11.2512 107.326 11.2512"></polygon>
                    <g id="Group-34" transform="translate(0.000000, 0.954200)">
                        <path d="M119.4428,11.9928 L116.8088,11.9928 L116.8088,15.4828 L119.4428,15.4828 C120.5298,15.4828 121.3198,14.7918 121.3198,13.7378 C121.3198,12.6838 120.5298,11.9928 119.4428,11.9928 L119.4428,11.9928 Z M118.7188,17.1788 L116.8088,17.1788 L116.8088,21.2788 L114.8818,21.2788 L114.8818,10.2968 L119.7068,10.2968 C121.8798,10.2968 123.2958,11.7128 123.2958,13.7378 C123.2958,15.6968 122.0108,16.7508 120.6938,16.9648 L123.3778,21.2788 L121.1548,21.2788 L118.7188,17.1788 Z" id="Fill-6" fill="#FFFFFF"></path>
                        <path d="M133.6337,11.8278 C131.4107,11.8278 129.9947,13.5238 129.9947,15.7958 C129.9947,18.0518 131.4107,19.7638 133.6337,19.7638 C135.8397,19.7638 137.2717,18.0518 137.2717,15.7958 C137.2717,13.5238 135.8397,11.8278 133.6337,11.8278 M133.6337,10.1158 C136.9257,10.1158 139.2477,12.5198 139.2477,15.7958 C139.2477,19.0728 136.9257,21.4758 133.6337,21.4758 C130.3407,21.4758 128.0187,19.0728 128.0187,15.7958 C128.0187,12.5198 130.3407,10.1158 133.6337,10.1158" id="Fill-8" fill="#FFFFFF"></path>
                        <polygon id="Fill-10" fill="#FFFFFF" points="146.3261 13.277 146.3261 21.278 144.4001 21.278 144.4001 10.297 146.3751 10.297 151.9901 18.085 151.9901 10.297 153.9161 10.297 153.9161 21.278 152.0551 21.278"></polygon>
                        <path d="M56.39,40.796 C56.39,37.421 58.909,35.116 62.07,35.116 C64.375,35.116 65.742,36.268 66.565,37.585 L64.919,38.425 C64.392,37.52 63.338,36.828 62.07,36.828 C59.979,36.828 58.366,38.491 58.366,40.796 C58.366,43.101 59.979,44.764 62.07,44.764 C63.338,44.764 64.392,44.088 64.919,43.167 L66.565,44.006 C65.725,45.323 64.375,46.476 62.07,46.476 C58.909,46.476 56.39,44.171 56.39,40.796" id="Fill-12" fill="#FFFFFF"></path>
                        <path d="M76.5248,36.8278 C74.3018,36.8278 72.8858,38.5238 72.8858,40.7958 C72.8858,43.0518 74.3018,44.7638 76.5248,44.7638 C78.7308,44.7638 80.1628,43.0518 80.1628,40.7958 C80.1628,38.5238 78.7308,36.8278 76.5248,36.8278 M76.5248,35.1158 C79.8168,35.1158 82.1388,37.5198 82.1388,40.7958 C82.1388,44.0728 79.8168,46.4758 76.5248,46.4758 C73.2318,46.4758 70.9098,44.0728 70.9098,40.7958 C70.9098,37.5198 73.2318,35.1158 76.5248,35.1158" id="Fill-14" fill="#FFFFFF"></path>
                        <polygon id="Fill-16" fill="#FFFFFF" points="87.2909 35.297 89.2169 35.297 89.2169 44.583 94.0579 44.583 94.0579 46.278 87.2909 46.278"></polygon>
                        <polygon id="Fill-18" fill="#FFFFFF" points="99.0946 35.297 101.0206 35.297 101.0206 44.583 105.8616 44.583 105.8616 46.278 99.0946 46.278"></polygon>
                        <polygon id="Fill-20" fill="#FFFFFF" points="110.8983 35.297 118.4223 35.297 118.4223 36.993 112.8243 36.993 112.8243 39.841 118.3073 39.841 118.3073 41.537 112.8243 41.537 112.8243 44.583 118.4223 44.583 118.4223 46.278 110.8983 46.278"></polygon>
                        <path d="M123.1957,40.796 C123.1957,37.421 125.7147,35.116 128.8757,35.116 C131.1807,35.116 132.5477,36.268 133.3707,37.585 L131.7247,38.425 C131.1977,37.52 130.1437,36.828 128.8757,36.828 C126.7847,36.828 125.1717,38.491 125.1717,40.796 C125.1717,43.101 126.7847,44.764 128.8757,44.764 C130.1437,44.764 131.1977,44.088 131.7247,43.167 L133.3707,44.006 C132.5307,45.323 131.1807,46.476 128.8757,46.476 C125.7147,46.476 123.1957,44.171 123.1957,40.796" id="Fill-22" fill="#FFFFFF"></path>
                        <polygon id="Fill-24" fill="#FFFFFF" points="140.8275 36.9928 137.5015 36.9928 137.5015 35.2968 146.0795 35.2968 146.0795 36.9928 142.7535 36.9928 142.7535 46.2788 140.8275 46.2788"></polygon>
                        <mask id="mask-2" fill="white">
                            <use xlink:href="#path-1"></use>
                        </mask>
                        <g id="Clip-27"></g>
                        <polygon id="Fill-26" fill="#FFFFFF" mask="url(#mask-2)" points="151.001 46.278 152.927 46.278 152.927 35.297 151.001 35.297"></polygon>
                        <polygon id="Fill-28" fill="#FFFFFF" mask="url(#mask-2)" points="157.4052 35.297 159.5942 35.297 162.9212 44.188 166.2462 35.297 168.4362 35.297 164.1222 46.278 161.7182 46.278"></polygon>
                        <polygon id="Fill-29" fill="#FFFFFF" mask="url(#mask-2)" points="172.9296 35.297 180.4536 35.297 180.4536 36.993 174.8556 36.993 174.8556 39.841 180.3386 39.841 180.3386 41.537 174.8556 41.537 174.8556 44.583 180.4536 44.583 180.4536 46.278 172.9296 46.278"></polygon>
                        <polygon id="Fill-30" fill="#FFFFFF" mask="url(#mask-2)" points="23.0609 0.046 38.3739 0.046 38.3739 15.359"></polygon>
                        <polygon id="Fill-31" fill="#FFFFFF" mask="url(#mask-2)" points="15.3134 55.0001 0.0004 55.0001 0.0004 39.6871"></polygon>
                        <polygon id="Fill-32" fill="#FFFFFF" mask="url(#mask-2)" points="0 31.939 15.313 31.939 15.313 0.046 0 0.046"></polygon>
                        <path d="M33.7167,26.4664 C33.7167,23.4444 31.2667,20.9934 28.2437,20.9934 C25.2217,20.9934 22.7717,23.4444 22.7717,26.4664 C22.7717,29.4884 25.2217,31.9394 28.2437,31.9394 C31.2667,31.9394 33.7167,29.4884 33.7167,26.4664" id="Fill-33" fill="#FFFFFF" mask="url(#mask-2)"></path>
                    </g>
                </g>
            </g>
        </g>
    </g>
</svg>